<svg id="Layer_1" data-name="Layer 1" xmlns="http://www.w3.org/2000/svg" viewBox="0 0 350 120"><defs><style>.cls-1{fill:#f90;}.cls-1,.cls-2{fill-rule:evenodd;}</style></defs><path class="cls-1" d="M200.94,80.1C188.33,89.4,170,94.36,154.3,94.36a84.38,84.38,0,0,1-57-21.75c-1.18-1.06-.13-2.52,1.29-1.69a114.71,114.71,0,0,0,57,15.12,113.38,113.38,0,0,0,43.49-8.89c2.14-.91,3.92,1.4,1.83,2.95"/><path class="cls-1" d="M206.19,74.1c-1.61-2.06-10.66-1-14.72-.49-1.24.15-1.43-.93-.32-1.7,7.21-5.08,19-3.61,20.43-1.91s-.36,13.57-7.14,19.23c-1,.87-2,.4-1.57-.75,1.52-3.8,4.94-12.31,3.32-14.38"/><path class="cls-2" d="M191.75,36.08V31.15A1.22,1.22,0,0,1,193,29.9h22.08a1.23,1.23,0,0,1,1.28,1.25v4.22c0,.71-.61,1.64-1.67,3.1L203.25,54.81a24.48,24.48,0,0,1,12.6,2.7A2.25,2.25,0,0,1,217,59.43V64.7c0,.71-.8,1.55-1.63,1.12a25.44,25.44,0,0,0-23.33,0c-.76.41-1.57-.42-1.57-1.14v-5a5.92,5.92,0,0,1,.82-3.39l13.25-19H193a1.22,1.22,0,0,1-1.28-1.24M111.19,66.86h-6.72a1.28,1.28,0,0,1-1.2-1.14V31.23A1.26,1.26,0,0,1,104.56,30h6.27a1.26,1.26,0,0,1,1.22,1.15v4.51h.12c1.64-4.36,4.71-6.39,8.85-6.39s6.83,2,8.72,6.39A9.92,9.92,0,0,1,146.8,33c2.12,2.9,1.69,7.11,1.69,10.81V65.61a1.27,1.27,0,0,1-1.3,1.25h-6.71a1.28,1.28,0,0,1-1.21-1.25V47.34a43.41,43.41,0,0,0-.18-6.47c-.5-2.31-2-3-4-3a4.47,4.47,0,0,0-4,2.83c-.69,1.74-.62,4.65-.62,6.61V65.61a1.27,1.27,0,0,1-1.3,1.25h-6.71a1.28,1.28,0,0,1-1.21-1.25V47.34c0-3.85.64-9.51-4.14-9.51s-4.64,5.52-4.64,9.51V65.61a1.27,1.27,0,0,1-1.29,1.25M235.37,29.27c10,0,15.37,8.56,15.37,19.45,0,10.51-6,18.86-15.37,18.86-9.79,0-15.12-8.56-15.12-19.23s5.4-19.08,15.12-19.08m.06,7c-5,0-5.27,6.74-5.27,10.95s-.06,13.21,5.21,13.21,5.45-7.26,5.45-11.68a31.86,31.86,0,0,0-1-9.15,4.19,4.19,0,0,0-4.39-3.33m28.23,30.55H257a1.28,1.28,0,0,1-1.21-1.25V31.12a1.28,1.28,0,0,1,1.3-1.12h6.23a1.28,1.28,0,0,1,1.2,1v5.27h.12c1.88-4.71,4.52-7,9.16-7a8.8,8.8,0,0,1,7.84,4.06c1.76,2.76,1.76,7.4,1.76,10.74v21.7a1.3,1.3,0,0,1-1.3,1.09h-6.74a1.28,1.28,0,0,1-1.19-1.09V47c0-3.77.44-9.29-4.2-9.29A4.4,4.4,0,0,0,266,40.51,15.35,15.35,0,0,0,265,47V65.61a1.3,1.3,0,0,1-1.32,1.25M174.14,50.39c0,2.62.07,4.8-1.25,7.12a5.47,5.47,0,0,1-4.65,3.06c-2.58,0-4.09-2-4.09-4.87,0-5.73,5.13-6.77,10-6.77v1.46m6.78,16.37a1.41,1.41,0,0,1-1.59.17,16.59,16.59,0,0,1-3.85-4.48c-3.69,3.76-6.31,4.88-11.08,4.88-5.66,0-10.05-3.49-10.05-10.47a11.4,11.4,0,0,1,7.16-11c3.65-1.61,8.74-1.89,12.63-2.33v-.87c0-1.6.13-3.49-.82-4.87a4.46,4.46,0,0,0-3.77-1.75c-2.56,0-4.84,1.32-5.39,4A1.42,1.42,0,0,1,163,41.33l-6.51-.7a1.19,1.19,0,0,1-1-1.41c1.49-7.9,8.64-10.28,15-10.28,3.27,0,7.54.87,10.12,3.34,3.27,3,3,7.13,3,11.56V54.31c0,3.15,1.3,4.53,2.53,6.23a1.27,1.27,0,0,1,0,1.78c-1.37,1.15-3.81,3.27-5.15,4.46v0M86.06,50.39c0,2.62.07,4.8-1.25,7.12a5.46,5.46,0,0,1-4.65,3.06c-2.58,0-4.09-2-4.09-4.87,0-5.73,5.13-6.77,10-6.77v1.46m6.78,16.37a1.41,1.41,0,0,1-1.59.17,16.83,16.83,0,0,1-3.86-4.48c-3.68,3.76-6.29,4.88-11.07,4.88-5.65,0-10.06-3.49-10.06-10.47a11.41,11.41,0,0,1,7.17-11c3.65-1.61,8.74-1.89,12.63-2.33v-.87c0-1.6.12-3.49-.81-4.87a4.49,4.49,0,0,0-3.77-1.75c-2.56,0-4.85,1.32-5.41,4a1.4,1.4,0,0,1-1.16,1.23l-6.52-.7a1.19,1.19,0,0,1-1-1.41c1.5-7.9,8.64-10.28,15-10.28,3.27,0,7.55.87,10.13,3.34,3.26,3,2.95,7.13,2.95,11.56V54.31c0,3.15,1.31,4.53,2.54,6.23a1.27,1.27,0,0,1,0,1.78c-1.37,1.15-3.81,3.27-5.15,4.46l0,0"/></svg>