<svg width="405" height="162" viewBox="0 0 405 162" fill="none" xmlns="http://www.w3.org/2000/svg">
<rect width="405" height="162" fill="white"/>
<g clip-path="url(#clip0_11046_33954)">
<path d="M371.284 67.5315C371.284 66.864 371.416 66.1965 371.681 65.6624C371.946 65.1284 372.344 64.5944 372.742 64.0603C373.14 63.6598 373.67 63.2593 374.333 62.9923C374.996 62.7252 375.525 62.5918 376.189 62.5918C376.851 62.5918 377.514 62.7252 378.043 62.9923C378.574 63.2593 379.105 63.6598 379.634 64.0603C380.165 64.4608 380.43 64.9949 380.695 65.6624C380.961 66.1965 381.093 66.864 381.093 67.5315C381.093 68.199 380.961 68.8666 380.695 69.4006C380.43 69.9347 380.033 70.4686 379.634 70.8693C379.237 71.2697 378.706 71.6702 378.043 71.9373C377.514 72.2043 376.851 72.3378 376.189 72.3378C375.525 72.3378 374.862 72.2043 374.333 71.9373C373.802 71.6702 373.272 71.4032 372.742 70.8693C372.344 70.4686 371.946 69.9347 371.681 69.4006C371.416 68.7331 371.284 68.199 371.284 67.5315ZM371.946 67.5315C371.946 68.0656 372.078 68.5995 372.212 69.1336C372.344 69.6677 372.742 70.0681 373.14 70.4686C373.537 70.8691 373.934 71.1362 374.465 71.4032C374.996 71.6702 375.525 71.6702 376.055 71.6702C376.586 71.6702 377.115 71.5368 377.646 71.4032C378.177 71.2697 378.574 70.8691 378.971 70.4686C379.37 70.0681 379.634 69.6677 379.899 69.1336C380.165 68.5995 380.165 68.0656 380.165 67.5315C380.165 66.9974 380.033 66.4635 379.899 65.9294C379.767 65.3953 379.37 64.9949 378.971 64.5944C378.574 64.1939 378.177 63.9268 377.646 63.6598C377.115 63.3928 376.586 63.3928 376.055 63.3928C375.525 63.3928 374.996 63.5264 374.465 63.6598C373.934 63.9268 373.537 64.1939 373.14 64.5944C372.742 64.9949 372.477 65.3953 372.212 65.9294C371.946 66.4635 371.946 66.864 371.946 67.5315ZM377.249 70.2016L376.055 68.0656H375.261V70.2016H373.934V64.7278H376.321C376.586 64.7278 376.851 64.7278 377.115 64.8614C377.381 64.8614 377.514 64.9949 377.779 65.1284C377.911 65.2619 378.177 65.3953 378.309 65.6624C378.442 65.9294 378.442 66.1965 378.442 66.4635C378.442 66.864 378.309 67.131 378.177 67.398C378.043 67.665 377.646 67.7985 377.381 67.932L378.839 70.2016H377.249ZM376.321 67.131C376.453 67.131 376.718 67.131 376.851 66.9974C376.983 66.864 377.115 66.7305 377.115 66.4635C377.115 66.1965 376.983 66.0629 376.851 65.9294C376.718 65.796 376.453 65.796 376.321 65.796H375.261V67.131H376.321Z" fill="#2A2E30"/>
<path d="M179.474 70.1988L174.57 71.9343C171.256 68.3297 166.616 66.594 160.651 66.594C156.144 66.594 152.433 67.7956 149.649 70.0652C146.866 72.3348 145.407 75.4055 145.407 79.0102C145.407 82.7484 146.866 85.6856 149.649 88.0886C152.433 90.3584 156.276 91.5598 161.05 91.5598C166.881 91.5598 171.389 89.8243 174.702 86.086L179.342 88.6227C176.956 91.4264 174.305 93.4289 171.389 94.6305C168.472 95.8321 164.893 96.4997 160.784 96.4997C154.951 96.4997 150.18 95.031 146.335 92.0939C141.961 88.7563 139.84 84.3505 139.84 79.0102C139.84 73.6699 142.094 69.3977 146.468 66.0601C150.312 63.1228 155.085 61.6543 160.784 61.6543C168.871 61.6543 175.1 64.458 179.474 70.1988Z" fill="#2A2E30"/>
<path d="M257.152 62.7246C260.467 62.7246 263.117 63.6592 265.105 65.5283C267.095 67.3974 268.023 69.9341 268.023 73.0048C268.023 76.3424 266.961 78.7454 264.973 80.4811C262.985 82.2167 259.936 83.0178 256.092 83.0178H236.607V95.5674H231.172V62.7246H257.152ZM256.224 78.0779C260.467 78.0779 262.455 76.3424 262.455 73.0048C262.455 69.4 260.202 67.5309 255.827 67.5309H236.607V78.0779H256.224Z" fill="#2A2E30"/>
<path d="M311.235 95.5674H304.873L295.992 83.0178H279.554V95.5674H274.12V62.7246H299.836C303.282 62.7246 305.933 63.6592 307.921 65.5283C309.91 67.3974 310.838 69.9341 310.838 73.1382C310.838 75.9419 310.042 78.2115 308.452 79.8136C306.994 81.4157 305.005 82.3502 302.354 82.7507L311.235 95.5674ZM299.173 78.0779C303.414 78.0779 305.402 76.3424 305.402 73.0048C305.402 69.4 303.149 67.5309 298.643 67.5309H279.554V78.0779H299.173Z" fill="#2A2E30"/>
<path d="M325.153 95.5674H319.719V62.7246H325.153V95.5674Z" fill="#2A2E30"/>
<path d="M207.841 62.7246H201.081L183.717 95.5674H189.682L204.528 67.3974L219.242 95.5674H225.073L207.841 62.7246Z" fill="#2A2E30"/>
<path d="M204.528 91.1605C206.504 91.1605 208.107 89.5467 208.107 87.5558C208.107 85.565 206.504 83.9512 204.528 83.9512C202.551 83.9512 200.948 85.565 200.948 87.5558C200.948 89.5467 202.551 91.1605 204.528 91.1605Z" fill="#00498C"/>
<path d="M355.376 62.7246H348.616L331.252 95.5674H337.217L352.063 67.3974L366.777 95.5674H372.609L355.376 62.7246Z" fill="#2A2E30"/>
<path d="M352.063 91.1605C354.039 91.1605 355.641 89.5467 355.641 87.5558C355.641 85.565 354.039 83.9512 352.063 83.9512C350.085 83.9512 348.484 85.565 348.484 87.5558C348.484 89.5467 350.085 91.1605 352.063 91.1605Z" fill="#00498C"/>
<path d="M119.692 93.1621C117.438 94.2303 115.317 95.1648 113.064 96.0994C112.931 96.0994 112.931 96.2328 112.799 96.2328C87.3479 107.047 65.6087 109.85 48.2438 109.183C40.1579 108.916 33.3975 107.047 28.8906 103.843C36.8439 118.128 51.9554 127.74 69.1878 127.74C86.6852 127.74 101.929 117.861 109.75 103.442C97.2896 108.515 84.5642 110.785 84.5642 110.785C97.4222 106.246 106.303 101.707 112.003 98.369C112.136 98.369 112.136 98.2354 112.268 98.2354C113.859 97.3008 115.185 96.3663 116.245 95.6988C118.631 94.0967 119.692 93.1621 119.692 93.1621Z" fill="url(#paint0_linear_11046_33954)"/>
<path d="M114.92 74.2056C111.606 51.7764 92.3851 34.6875 69.3202 34.6875C43.7368 34.6875 23.0581 55.5147 23.0581 81.2815C23.0581 83.4176 23.1907 85.4202 23.4558 87.4228C25.9743 80.0799 33.53 71.5355 47.7136 62.1899C37.9044 72.6035 32.2045 86.8888 39.8927 93.1636C40.688 93.8311 41.616 94.3652 42.809 94.7657C44.9299 95.5668 47.581 96.1007 50.8949 96.3677C53.8111 96.5013 57.2576 96.3678 60.9692 95.9673C62.1622 95.8338 63.3552 95.7002 64.5482 95.5668C67.597 95.1662 70.9109 94.4986 74.3573 93.5641C75.5503 93.2972 76.7433 92.8965 77.9363 92.6296C81.1177 91.6951 84.4317 90.7605 87.7455 89.5589C96.7594 86.3548 106.171 82.0826 115.45 76.4752C120.752 73.271 126.054 69.6664 131.091 65.7947C125.524 68.8653 120.222 71.669 114.92 74.2056ZM50.7623 91.6951V55.2476H60.8367V91.962C56.3296 92.4961 52.8833 92.3626 50.7623 91.6951ZM64.4156 91.428V48.1718H74.2248V89.4255C70.6458 90.2264 67.3318 91.0276 64.4156 91.428ZM77.6713 88.4909V41.0958H87.4805V85.4202C84.1665 86.6218 80.8526 87.5564 77.6713 88.4909Z" fill="url(#paint1_linear_11046_33954)"/>
</g>
<defs>
<linearGradient id="paint0_linear_11046_33954" x1="74.296" y1="105.264" x2="74.296" y2="128.132" gradientUnits="userSpaceOnUse">
<stop stop-color="#A3A8AB"/>
<stop offset="1" stop-color="#616769"/>
</linearGradient>
<linearGradient id="paint1_linear_11046_33954" x1="76.9829" y1="35.2362" x2="76.9829" y2="95.8371" gradientUnits="userSpaceOnUse">
<stop stop-color="#00498C"/>
<stop offset="1" stop-color="#000A3D"/>
</linearGradient>
<clipPath id="clip0_11046_33954">
<rect width="359.04" height="95.04" fill="white" transform="translate(22.48 33.4805)"/>
</clipPath>
</defs>
</svg>
