<svg id="Layer_1" data-name="Layer 1" xmlns="http://www.w3.org/2000/svg" viewBox="0 0 350 120"><defs><style>.cls-1{fill:#2b2b2b;}.cls-2{fill:#f68633;}</style></defs><path class="cls-1" d="M242.86,59.22l6.7-10.8,7.8-13.5c1.1-1.9,2.3-4.1,6-4.1H273l-18,28,18.5,30h-13.3L249,69.52Z"/><polygon class="cls-2" points="222.56 88.82 240.56 59.22 222.76 30.92 235.96 30.92 245.66 47.62 252.96 59.22 246.96 69.62 235.16 88.82 222.56 88.82"/><path class="cls-1" d="M211,30.92l.1,19.3s-5-10.2-18.6-6c-8.5,2.6-13.4,18.2-10.4,30.3,0,.1,0,.1.1.1H186l-1.9,5.1v.1c3,5.9,7.7,9.2,16.8,9.1,2.9-.2,20.6-.2,21.2-16.3l.1-36.3c0-2.6-2.3-5.4-6.7-5.4Zm-13,22.8a8.33,8.33,0,0,1,3.5-.7c1.6,0,4.2.2,5.8,1.7a3.61,3.61,0,0,1,.5.4c.2.3.4.5.6.8,2.1,2.6,2.7,4.5,2.7,10.4s-2.2,13-8.9,13-10.1-5.2-10.1-13C192.26,61.22,193.46,55.72,198,53.72Z"/><path class="cls-1" d="M74.86,88.82V35.92s.2-4.7,5.6-4.9h5.7v57.8Z"/><path class="cls-1" d="M116.76,88.82V62.72c.1-5.6,2.5-19.4,24.3-19.4V55c-10.3-1-13.1,3.5-13.1,7.4v26.4Z"/><path class="cls-1" d="M180.36,68.72c1-12.7-2.9-24.9-19.6-25.5-16,0-20.4,11.6-19.9,23.9.6,13.5,5.6,21.4,20.2,21.7,17.3-.6,19.1-14,19.1-14h-10.5c-3.7,7-17.5,7.7-17.5-6Zm-11.5-6.9h-16.7C152,49.42,169.26,49.62,168.86,61.82Z"/><path class="cls-1" d="M86,62.32l17.1-19.1h12.6l-15.9,19L116,88.82h-12.4l-10.5-17.4s-3.9-4.1-7,.1Z"/></svg>