<?xml version="1.0" encoding="UTF-8" standalone="no"?>
<svg
   width="350"
   height="120"
   viewBox="0 0 350 120"
   version="1.1"
   id="svg12"
   sodipodi:docname="lendingkart_rect.svg"
   inkscape:version="1.1.1 (eb90963e84, 2021-10-02)"
   xmlns:inkscape="http://www.inkscape.org/namespaces/inkscape"
   xmlns:sodipodi="http://sodipodi.sourceforge.net/DTD/sodipodi-0.dtd"
   xmlns="http://www.w3.org/2000/svg"
   xmlns:svg="http://www.w3.org/2000/svg"
   xmlns:rdf="http://www.w3.org/1999/02/22-rdf-syntax-ns#"
   xmlns:cc="http://creativecommons.org/ns#"
   xmlns:dc="http://purl.org/dc/elements/1.1/">
  <defs
     id="defs16" />
  <sodipodi:namedview
     id="namedview14"
     pagecolor="#ffffff"
     bordercolor="#666666"
     borderopacity="1.0"
     inkscape:pageshadow="2"
     inkscape:pageopacity="0.0"
     inkscape:pagecheckerboard="0"
     showgrid="false"
     width="350px"
     inkscape:zoom="1.8666667"
     inkscape:cx="15.803571"
     inkscape:cy="68.571428"
     inkscape:window-width="1920"
     inkscape:window-height="1010"
     inkscape:window-x="0"
     inkscape:window-y="34"
     inkscape:window-maximized="1"
     inkscape:current-layer="svg12" />
  <!-- Generator: Sketch 56.3 (81716) - https://sketch.com -->
  <title
     id="title2">Brand logo</title>
  <desc
     id="desc4">Created with Sketch.</desc>
  <g
     id="Web"
     stroke="none"
     stroke-width="1"
     fill="none"
     fill-rule="evenodd"
     transform="matrix(1.6666667,0,0,1.6666667,24.999997,45)">
    <g
       id="3"
       transform="translate(-120,-30)">
      <g
         id="Top-Bar">
        <g
           id="Brand-logo"
           transform="translate(120,30)">
          <path
             d="M 166.42724,0.25145754 V 3.3414449 h 4.8809 V 17.760203 h 3.81148 V 3.3414449 H 180 V 0.25145754 Z M 137.23508,10.479088 c 1.27831,-4.0319397 2.0529,-6.5591894 2.32377,-7.5807357 0.0651,0.2874525 0.17398,0.678834 0.32557,1.1731306 0.15158,0.4958175 0.8298,2.6311787 2.03466,6.4076051 z M 137.2106,0.17946768 130.86699,17.760203 h 4.10579 l 1.30331,-4.167808 h 6.55301 l 1.30279,4.167808 h 4.10631 L 141.86959,0.17946768 Z m -8.32983,0.0719899 h -4.22924 l -4.86892,5.95183772 -1.49969,2.0603295 V 0.25145754 h -3.81096 V 17.760203 h 3.81096 v -6.251458 l 1.61064,-1.125982 4.70848,7.37744 h 4.3277 L 122.61061,8 Z M 103.06253,11.01749 h 3.40569 v 3.652725 c -0.81991,0.160203 -1.62731,0.239798 -2.4217,0.239798 -1.52469,0 -2.68632,-0.500887 -3.48539,-1.503169 -0.799069,-1.001774 -1.199126,-2.453232 -1.199126,-4.3533586 0,-1.8205323 0.495904,-3.268948 1.487716,-4.347275 0.99232,-1.0773131 2.31178,-1.6162231 3.95889,-1.6162231 1.41791,0 2.78216,0.3193917 4.09381,0.957668 L 110.16875,1.07782 C 108.45548,0.35893536 106.67763,0 104.83309,0 c -2.9426,0 -5.24397,0.79036755 -6.90358,2.3716096 -1.659611,1.5807351 -2.488895,3.7840304 -2.488895,6.6103929 0,2.9059565 0.714685,5.1361215 2.145096,6.6884665 C 99.015601,17.223828 101.08725,18 103.80013,18 c 1.06526,0 2.10864,-0.07453 3.12909,-0.222053 1.01994,-0.147529 2.10863,-0.40507 3.26453,-0.772117 V 7.9280101 h -7.13122 z M 88.284913,8.53891 c 0,0.9419519 0.06147,2.551077 0.184401,4.825856 h -0.08595 L 80.576008,0.25145754 H 75.769076 V 17.760203 h 3.405691 V 9.5204056 c 0,-0.9977186 -0.07762,-2.6661597 -0.233366,-5.0058302 h 0.110953 l 7.818817,13.2456276 h 4.843916 V 0.25145754 H 88.284913 Z M 67.43404,17.760203 h 3.810957 V 0.25145754 H 67.43404 Z M 54.242587,14.694043 H 52.606938 V 3.2932826 h 2.028933 c 3.409338,0 5.113746,1.8803549 5.113746,5.6410647 0,3.8397977 -1.835677,5.7596957 -5.50703,5.7596957 z M 54.438969,0.25145754 H 48.795981 V 17.760203 h 5.089784 c 3.179617,0 5.612254,-0.76654 7.296347,-2.299113 1.684614,-1.53308 2.526921,-3.740431 2.526921,-6.6230672 0,-2.7062104 -0.811574,-4.8141952 -2.43472,-6.3229404 C 59.651687,1.0058302 57.373239,0.25145754 54.438969,0.25145754 Z M 40.841728,8.53891 c 0,0.9419519 0.06147,2.551077 0.18388,4.825856 H 40.94018 L 33.133344,0.25145754 H 28.325891 V 17.760203 h 3.405691 V 9.5204056 c 0,-0.9977186 -0.07814,-2.6661597 -0.233366,-5.0058302 h 0.110432 l 7.818817,13.2456276 h 4.843916 V 0.25145754 h -3.429653 z m -26.617315,9.221293 h 10.351988 v -3.06616 H 18.03537 v -4.514575 h 6.085758 V 7.1376426 H 18.03537 v -3.84436 h 6.541031 V 0.25145754 H 14.224413 Z M 3.8114779,0.25145754 H 0 V 17.760203 h 11.101574 v -3.06616 H 3.8114779 Z"
             id="Fill-1-Copy-8"
             fill="#294e9b" />
          <path
             d="m 151.85474,0.00207272 -1.30929,1.66180158 h 3.40415 c 0.33899,0.015027 2.56011,0.2549442 3.40317,1.9379912 h -5.49803 l -1.30781,1.6426288 h 7.13058 c -0.002,0.032127 -0.004,0.060109 -0.007,0.092236 0,0 0.0899,3.6143017 -6.33911,2.9722774 V 10.246999 L 158.13834,18 h 2.61808 v -0.553416 l -6.54545,-7.7530008 c 0,0 5.16051,0.059072 6.02714,-4.4211072 0,0 -4.9e-4,-0.00881 0.003,-0.027982 h 2.19803 l 1.19678,-1.6426288 h -3.40316 c -0.13068,-0.6202609 -0.5247,-1.383021 -1.04743,-1.9379912 h 3.40365 L 163.63391,0 Z"
             id="Fill-1-Copy-9"
             fill="#ff7000" />
        </g>
      </g>
    </g>
  </g>
  <metadata
     id="metadata18">
    <rdf:RDF>
      <cc:Work
         rdf:about="">
        <dc:title>Brand logo</dc:title>
      </cc:Work>
    </rdf:RDF>
  </metadata>
</svg>
