<svg id="Layer_1" data-name="Layer 1" xmlns="http://www.w3.org/2000/svg" xmlns:xlink="http://www.w3.org/1999/xlink" viewBox="0 0 350 120"><defs><style>.cls-1{fill:#fff;}.cls-1,.cls-2,.cls-4,.cls-5,.cls-6{fill-rule:evenodd;}.cls-2{fill:#fd3753;}.cls-3{mask:url(#mask);}.cls-4{fill:#d31831;}.cls-5{fill:#222;}.cls-6{fill:#424242;}</style><mask id="mask" x="25.07" y="31.07" width="56.1" height="56.1" maskUnits="userSpaceOnUse"><g id="C"><path id="A" class="cls-1" d="M25.07,31.07h56.1V87.16H25.07Z"/></g></mask></defs><path class="cls-2" d="M25.34,59.11A27.78,27.78,0,1,1,53.12,86.89,27.78,27.78,0,0,1,25.34,59.11"/><g class="cls-3"><path class="cls-4" d="M53.12,31.61a27.5,27.5,0,1,0,27.5,27.5,27.53,27.53,0,0,0-27.5-27.5m0,55.55a28,28,0,1,1,28.05-28A28.08,28.08,0,0,1,53.12,87.16"/></g><path class="cls-1" d="M49.56,71.23a4.68,4.68,0,0,0,.89-4.84A4.62,4.62,0,0,0,49.56,65a4.54,4.54,0,0,0-1.33-1,3.69,3.69,0,0,0-1.64-.36A3.84,3.84,0,0,0,45,64a4.08,4.08,0,0,0-1.34,1,4.94,4.94,0,0,0-.92,1.43,4.52,4.52,0,0,0-.34,1.7,4.68,4.68,0,0,0,.32,1.71,4.31,4.31,0,0,0,.9,1.41,4.63,4.63,0,0,0,1.32,1,3.59,3.59,0,0,0,1.64.37,4,4,0,0,0,3-1.28Zm-5.44,2.51a6.4,6.4,0,0,1-2-1.3,5.81,5.81,0,0,1-1.36-2,5.87,5.87,0,0,1-.49-2.41,5.81,5.81,0,0,1,.49-2.39,6,6,0,0,1,1.36-1.94A6.49,6.49,0,0,1,46.59,62a6.69,6.69,0,0,1,2.47.47,6.6,6.6,0,0,1,2,1.3,6.16,6.16,0,0,1,1.37,1.94A6,6,0,0,1,53,68.07a6.11,6.11,0,0,1-.49,2.41,5.84,5.84,0,0,1-1.37,2,6.64,6.64,0,0,1-7,1.3Zm18.4-20.43a4,4,0,0,0,1.32-1,4.93,4.93,0,0,0,.92-1.43,4.31,4.31,0,0,0,.34-1.71,4.56,4.56,0,0,0-.32-1.68,4.51,4.51,0,0,0-2.24-2.39,3.65,3.65,0,0,0-1.62-.36,3.74,3.74,0,0,0-1.58.34A4.48,4.48,0,0,0,57,47.47a4.44,4.44,0,0,0-.34,1.75A4.26,4.26,0,0,0,57,50.9a4.5,4.5,0,0,0,.89,1.41,4.22,4.22,0,0,0,1.35,1,4,4,0,0,0,3.26,0ZM64.76,74,53.12,59.11,41.26,44.61l1.49-1.27L54.31,58.13l11.94,14.5L64.76,74ZM58.43,54.85a6,6,0,0,1-2-1.3A6.55,6.55,0,0,1,55,51.61a5.77,5.77,0,0,1-.51-2.39A5.67,5.67,0,0,1,55,46.83a6.63,6.63,0,0,1,1.37-1.94,6.52,6.52,0,0,1,2-1.32,6.52,6.52,0,0,1,5,0,6.83,6.83,0,0,1,2,1.32,6.08,6.08,0,0,1,1.36,1.94,6,6,0,0,1-1.36,6.72,6.4,6.4,0,0,1-2,1.3,6.31,6.31,0,0,1-2.47.47A6.44,6.44,0,0,1,58.43,54.85Z"/><path class="cls-5" d="M100.38,54.85v19.4H94.5V44h4.56l15.78,19.87V44h5.88V74.25H116Zm30.83,4.27a12.86,12.86,0,0,0,.58,3.79,10.37,10.37,0,0,0,1.66,3.24,8.18,8.18,0,0,0,2.67,2.26,7.38,7.38,0,0,0,3.58.86,7.14,7.14,0,0,0,3.6-.88,8.24,8.24,0,0,0,2.63-2.32,10.93,10.93,0,0,0,1.62-3.26,12.83,12.83,0,0,0,.55-3.69,12.27,12.27,0,0,0-.6-3.8,10.82,10.82,0,0,0-1.68-3.24,8.28,8.28,0,0,0-2.65-2.24,7.37,7.37,0,0,0-3.51-.83,7.28,7.28,0,0,0-3.61.87,8.59,8.59,0,0,0-2.64,2.31,10.1,10.1,0,0,0-1.64,3.24,12.46,12.46,0,0,0-.56,3.69m8.4,15.35a13,13,0,0,1-5.84-1.3,14.51,14.51,0,0,1-4.54-3.46,15.43,15.43,0,0,1-2.92-4.92,16.32,16.32,0,0,1-1-5.67,15.91,15.91,0,0,1,4.11-10.71A14.61,14.61,0,0,1,134,45a13.18,13.18,0,0,1,5.75-1.25,12.71,12.71,0,0,1,5.85,1.34,14.57,14.57,0,0,1,4.51,3.52A16.3,16.3,0,0,1,154,59.2,15.45,15.45,0,0,1,152.94,65a15.77,15.77,0,0,1-3,4.86,14.43,14.43,0,0,1-4.56,3.37,13.2,13.2,0,0,1-5.76,1.26"/><path class="cls-6" d="M178.42,65.77a5.55,5.55,0,0,0-.36-2,5.76,5.76,0,0,0-1-1.69A4.69,4.69,0,0,0,175.61,61a4.24,4.24,0,0,0-1.88-.43H162.9V70.93h10.53a4.41,4.41,0,0,0,2-.43A5.25,5.25,0,0,0,177,69.37,5.11,5.11,0,0,0,178,67.73a5.26,5.26,0,0,0,.38-2ZM162.9,47.3V57.41h9.64a4.3,4.3,0,0,0,1.87-.4,4.86,4.86,0,0,0,1.47-1.09,5.29,5.29,0,0,0,1.34-3.54,5.74,5.74,0,0,0-.34-2,5.08,5.08,0,0,0-.91-1.62,4.07,4.07,0,0,0-1.41-1.06,4.19,4.19,0,0,0-1.77-.39Zm19.4,19.15a7.22,7.22,0,0,1-.7,3.2,7.46,7.46,0,0,1-1.92,2.47,8.65,8.65,0,0,1-2.82,1.58,10.37,10.37,0,0,1-3.43.55H159.06V44h15.05a5.9,5.9,0,0,1,2.86.68,7.11,7.11,0,0,1,2.18,1.77,8.07,8.07,0,0,1,1.38,2.47,8.29,8.29,0,0,1,.49,2.79,8.08,8.08,0,0,1-1.12,4.18,7,7,0,0,1-3.22,2.86,7.6,7.6,0,0,1,4.11,2.84,8,8,0,0,1,1.51,4.88Z"/><path id="B" class="cls-6" d="M191.56,60h9.16a4.53,4.53,0,0,0,2.16-.51,5.09,5.09,0,0,0,1.64-1.39,6.66,6.66,0,0,0,1.07-2,7.32,7.32,0,0,0,.38-2.38,6.4,6.4,0,0,0-.45-2.41,7,7,0,0,0-1.19-2,5.38,5.38,0,0,0-1.75-1.36,4.8,4.8,0,0,0-2.11-.49h-8.91V60Zm-3.84,14.28V44h13a8.13,8.13,0,0,1,3.69.83,9.24,9.24,0,0,1,2.9,2.22,10.57,10.57,0,0,1,1.9,3.11,9.42,9.42,0,0,1,.68,3.52,10.53,10.53,0,0,1-.45,3.05,9.23,9.23,0,0,1-1.28,2.66,8.46,8.46,0,0,1-2,2.05,7.91,7.91,0,0,1-2.62,1.24l7.33,11.59h-4.35l-6.91-10.87h-8V74.25Z"/><path class="cls-6" d="M218,59.12a13.67,13.67,0,0,0,.74,4.45,12.46,12.46,0,0,0,2.12,3.82A10,10,0,0,0,224.18,70a9.15,9.15,0,0,0,4.26,1,8.91,8.91,0,0,0,4.35-1,10.79,10.79,0,0,0,3.27-2.73,12.24,12.24,0,0,0,2-3.82,13.51,13.51,0,0,0,0-8.76,12,12,0,0,0-2.13-3.8,10.74,10.74,0,0,0-3.29-2.62,9,9,0,0,0-4.2-1,9.13,9.13,0,0,0-4.35,1A10.7,10.7,0,0,0,220.83,51a12.22,12.22,0,0,0-2.07,3.8,13.41,13.41,0,0,0-.72,4.35M228.4,74.47a12.89,12.89,0,0,1-5.82-1.3,14.34,14.34,0,0,1-4.5-3.46,15.57,15.57,0,0,1-2.9-4.92,16.32,16.32,0,0,1-1-5.67,15.8,15.8,0,0,1,1.08-5.8,16,16,0,0,1,3-4.91A14.49,14.49,0,0,1,222.79,45a13,13,0,0,1,5.7-1.25,12.35,12.35,0,0,1,5.79,1.34,14.76,14.76,0,0,1,4.48,3.52,15.78,15.78,0,0,1,2.9,4.92A15.89,15.89,0,0,1,241.6,65a15.83,15.83,0,0,1-3,4.88,14.27,14.27,0,0,1-4.52,3.37,12.92,12.92,0,0,1-5.69,1.26m19.66-.22V44h3.84V60.73L267.51,44h4.13L259.49,57.32l12.83,16.93h-4.18l-11-14.71L251.9,65v9.25Zm48.23-3.41v3.41H275.74V44h20.17v3.41H279.58V57.2h14.2v3.19h-14.2V70.84Z"/><path id="B-2" data-name="B" class="cls-6" d="M305.59,60h9.17a4.52,4.52,0,0,0,2.15-.51,5.09,5.09,0,0,0,1.64-1.39,6.66,6.66,0,0,0,1.07-2,7.32,7.32,0,0,0,.38-2.38,6.4,6.4,0,0,0-.44-2.41,7.25,7.25,0,0,0-1.2-2,5.38,5.38,0,0,0-1.75-1.36,4.77,4.77,0,0,0-2.11-.49h-8.91V60Zm-3.84,14.28V44h13a8.13,8.13,0,0,1,3.69.83A9.13,9.13,0,0,1,321.3,47a10.57,10.57,0,0,1,1.9,3.11,9.42,9.42,0,0,1,.68,3.52,10.2,10.2,0,0,1-.45,3.05,9.21,9.21,0,0,1-1.27,2.66,8.69,8.69,0,0,1-2,2.05,7.91,7.91,0,0,1-2.62,1.24l7.33,11.59h-4.34l-6.91-10.87h-8V74.25Z"/></svg>