<svg id="Layer_1" data-name="Layer 1" xmlns="http://www.w3.org/2000/svg" viewBox="0 0 350 120"><defs><style>.cls-1{fill:#121735;}.cls-1,.cls-3{fill-rule:evenodd;}.cls-2{fill:none;stroke:#121735;stroke-linecap:square;stroke-width:3px;}.cls-3{fill:#f8931d;}</style></defs><g id="variation-4-copy"><g id="Group-2"><path id="legal" class="cls-1" d="M112.61,93.72v-8h1.11v7h3.58v1Zm26.45,0v-8h4.63v1h-3.51v2.5H143v1h-2.86v2.56h3.71v1Zm26.67-4.07A4.12,4.12,0,0,1,166,88a4.06,4.06,0,0,1,.85-1.31,3.81,3.81,0,0,1,1.3-.87,4.13,4.13,0,0,1,1.61-.32,4.93,4.93,0,0,1,1,.1,4.57,4.57,0,0,1,.82.24,6.35,6.35,0,0,1,.58.28,3.65,3.65,0,0,1,.36.24l.11.1-.56.83-.1-.08-.3-.19a4.09,4.09,0,0,0-.47-.23,3.68,3.68,0,0,0-1.38-.27,3,3,0,0,0-1.6.41,2.67,2.67,0,0,0-1,1.11,3.31,3.31,0,0,0-.36,1.55,3.35,3.35,0,0,0,.39,1.62,2.77,2.77,0,0,0,1.06,1.11,3,3,0,0,0,2.26.29,2.67,2.67,0,0,0,.63-.25,4.61,4.61,0,0,0,.46-.29,2.29,2.29,0,0,0,.3-.25l.1-.1V90.61h-1.3v-1h2.32v4h-1v-.49l0-.34h0a.91.91,0,0,1-.1.1l-.3.24a3.49,3.49,0,0,1-1.18.53,3.63,3.63,0,0,1-.87.1,3.84,3.84,0,0,1-1.51-.3,3.9,3.9,0,0,1-1.25-.85,3.86,3.86,0,0,1-.85-1.31A4.43,4.43,0,0,1,165.73,89.65Zm34.93,4.07-.81-2.29h-3l-.8,2.29H194.9l2.88-8H199l2.87,8Zm-2.23-6.92h0c-.12.48-.23.85-.32,1.13l-.89,2.52h2.41l-.88-2.52c0-.13-.08-.28-.14-.47s-.09-.34-.12-.47Zm25.22,6.92v-8h1.17v7h3.73v1Z"/><path id="Line-Copy-6" class="cls-2" d="M245,89.76l44.14-.39"/><path id="Line-Copy-8" class="cls-2" d="M51.4,89.76l44.14-.39"/></g><path id="Novo" class="cls-3" d="M77,70c-1.58,0-3.65-1.45-6.23-4.35Q69.52,64.3,60,51T49.89,37.7q-.59,0-.59,12.29T51,65.75a11.56,11.56,0,0,0,1,1.52,4.34,4.34,0,0,1,.87,1.49q0,1.62-7.19,1.62H44.2c-2.49,0-3.73-.48-3.73-1.43l.53-.74L43,67a4.92,4.92,0,0,0,1.8-3q.43-2,.44-14.69T44.68,34.7a7,7,0,0,0-2.25-3.35q-1.68-1.44-1.68-2.16c0-.74,1.3-1.12,3.9-1.12a17.12,17.12,0,0,1,5.55.64A9.8,9.8,0,0,1,53.48,31q1.64,1.59,10.74,14.41t9.69,12.82q.59,0,.59-9.57a93.1,93.1,0,0,0-.58-12.93,12.28,12.28,0,0,0-1.35-4.47l-1.31-1.3a1.61,1.61,0,0,1-.53-1.12c0-.52.89-.78,2.68-.78h1.4q6,0,7.21.93l.38.56a5.77,5.77,0,0,1-1.53,2.72,9.27,9.27,0,0,0-1.93,4.06q-.39,2.16-.4,13.24l-.06,4.53,0,1.49v3l0,3a64.94,64.94,0,0,1-.19,7.08C78,69.55,77.59,70,77,70Zm54.85-2.24q-1.28,2.46-2.94,2.46a3.4,3.4,0,0,1-2.86-2,82.14,82.14,0,0,1-4.32-10.39q-3.14-8.43-4.06-10.34a8,8,0,0,0-2.65-3.1c-1.14-.8-1.71-1.46-1.71-2q0-1.74,4.23-1.74h3q4.64,0,4.63,1.49l-.06.31a12.15,12.15,0,0,0-.53,2.79q0,3.8,4.64,15.09c.5,1.22.85,1.83,1.07,1.83s.61-.7,1.17-2.08Q136,48.94,136,45.49a4,4,0,0,0-.22-1.6c-.14-.3-.33-.67-.57-1.1a2.47,2.47,0,0,1-.36-.9c0-.77.95-1.15,2.86-1.15H140c2.88,0,4.33.38,4.33,1.13s-.58,1.64-1.73,2.64a9.16,9.16,0,0,0-2.26,2.61c-.35.73-.67,1.48-1,2.23s-.67,1.72-1.15,2.9l-2,5.09Q132.21,67.09,131.84,67.8Z"/><path id="Combined-Shape" class="cls-3" d="M111.88,54.41v1.51a15,15,0,0,1-1,5.35,14.68,14.68,0,0,1-3,4.84,12.81,12.81,0,0,1-9.66,4.28H96.69a11.56,11.56,0,0,1-5-1.11,13.07,13.07,0,0,1-6.92-7.63,15.33,15.33,0,0,1-.94-5.13V55a15.16,15.16,0,0,1,1.06-5.37,14.23,14.23,0,0,1,3.08-4.94,13.18,13.18,0,0,1,10-4.19h.58a12.68,12.68,0,0,1,9.33,3.83,13.1,13.1,0,0,1,3,4.71A14.85,14.85,0,0,1,111.88,54.41Zm-6.79,1.9v-.75A16.53,16.53,0,0,0,103,47a6.93,6.93,0,0,0-2.37-2.49A5.15,5.15,0,0,0,98,43.62h-.9q-2.72,0-4.7,2.88a11.51,11.51,0,0,0-2,6.68l-.06.72,0,1.09v.39l0,.36,0,.72c0,.25,0,.49,0,.73a12.84,12.84,0,0,0,2.48,7.38,5.74,5.74,0,0,0,4.89,2.75h.34l.3,0q3,0,4.86-3.21A15.56,15.56,0,0,0,105.09,56.31Z"/><path id="Combined-Shape-2" data-name="Combined-Shape" class="cls-3" d="M173.88,54.41v1.51a15,15,0,0,1-1.06,5.35,14.66,14.66,0,0,1-3,4.84,12.84,12.84,0,0,1-9.67,4.28h-1.45a11.56,11.56,0,0,1-5.05-1.11,13.07,13.07,0,0,1-6.92-7.63,15.31,15.31,0,0,1-.93-5.13V55a15.14,15.14,0,0,1,1.05-5.37,14.25,14.25,0,0,1,3.09-4.94,13.15,13.15,0,0,1,10-4.19h.57a12.7,12.7,0,0,1,9.34,3.83,13.08,13.08,0,0,1,3,4.71A14.87,14.87,0,0,1,173.88,54.41Zm-6.8,1.9v-.75A16.53,16.53,0,0,0,165,47a6.93,6.93,0,0,0-2.37-2.49,5.15,5.15,0,0,0-2.64-.89h-.91q-2.72,0-4.7,2.88a11.51,11.51,0,0,0-2,6.68l-.06.72,0,1.09v.39l0,.36,0,.72c0,.25,0,.49,0,.73a12.84,12.84,0,0,0,2.48,7.38,5.75,5.75,0,0,0,4.9,2.75h.33l.3,0c2,0,3.66-1.07,4.86-3.21A15.56,15.56,0,0,0,167.08,56.31Z"/><path id="Path" class="cls-1" d="M198.17,43.05l.08,2.29v.81l.14,4.15a88.43,88.43,0,0,1-.14,12.09q-1,7.83-6.64,11.23a12.56,12.56,0,0,1-6.13,1.76l-.72,0a9.12,9.12,0,0,1-5-1.21,4,4,0,0,1-2.32-3.35l0-.65a3,3,0,0,1,.61-1.89,2.13,2.13,0,0,1,1.71-.9,4.68,4.68,0,0,1,2.62,1,4.52,4.52,0,0,0,2.29,1.05,4.16,4.16,0,0,0,3.4-2.12,21.16,21.16,0,0,0,2.38-6.31q1-4.26.69-14t-1-11.73a6.12,6.12,0,0,0-2-3c-1.53-1.19-2.31-2-2.32-2.31,0-1,2.18-1.6,6.63-1.76l1.62-.05h.81c4.68-.16,7,.12,7.06.84,0,.37-.47,1.05-1.45,2a7.51,7.51,0,0,0-1.82,2.41,21.16,21.16,0,0,0-.53,6.91v.84C198.13,41.71,198.14,42.34,198.17,43.05Z"/><path id="Path-2" data-name="Path" class="cls-1" d="M228.75,70a1.81,1.81,0,0,1-1.48-.56,6.89,6.89,0,0,1-.85-1.48c-.27-.61-.47-.91-.59-.91a4.77,4.77,0,0,0-2,.91,24.58,24.58,0,0,1-2.16,1.29,10.74,10.74,0,0,1-4.82,1.15q-5.39,0-7.84-4.25-1.42-2.49-1.43-12.57a34.46,34.46,0,0,0-.44-7.28,3.65,3.65,0,0,0-1.21-2,9.65,9.65,0,0,1-1.84-1.49v-.56q0-1.27,6.72-1.27a2.34,2.34,0,0,1,2.52,1.59c.36,1.07.53,4.47.53,10.2s.26,9.22.78,10.46a5.14,5.14,0,0,0,2,2.59,5.8,5.8,0,0,0,3,.73,6.25,6.25,0,0,0,3.41-1.05,7.12,7.12,0,0,0,2.53-2.78c.6-1.15.89-3.63.89-7.44A34.2,34.2,0,0,0,226,47.7a14.14,14.14,0,0,0-1.2-3.06,4.27,4.27,0,0,1-.66-1.75q0-2.09,7.18-2.08c.87,0,1.39.25,1.54.75a19.38,19.38,0,0,1,.23,4.06L233,47.33q0,.87,0,1.32T233,50.84l-.06,1.73c0,1.18-.07,3-.07,5.61a18,18,0,0,0,.53,5.3,4.79,4.79,0,0,0,1.28,2.1q1.59,1.28,1.59,1.74c0,.68-.76,1.29-2.26,1.83A15.37,15.37,0,0,1,228.75,70Z"/><path id="Path-3" data-name="Path" class="cls-1" d="M245.29,40.81h1.09c.94,0,1.6.67,2,2s.86,2,1.4,2c.17,0,.63-.33,1.37-1s1.3-1.12,1.64-1.37A6.63,6.63,0,0,1,256.67,41a4.18,4.18,0,0,1,2.95,1,3,3,0,0,1,1.12,2.23v.52a3,3,0,0,1-.72,1.84,2.4,2.4,0,0,1-2,.91,11.07,11.07,0,0,1-1.85-.63,7.84,7.84,0,0,0-2.63-.62,3.88,3.88,0,0,0-2.24.94,7.35,7.35,0,0,0-2.12,3.08c-.58,1.41-.88,3.85-.88,7.31s.22,5.66.66,6.64a9.43,9.43,0,0,0,2.32,3A7.69,7.69,0,0,1,253,68.93q0,1.38-9.43,1.38h-1.34l-1.32,0c-2.13,0-3.2-.32-3.2-1s.51-1.32,1.54-2a5,5,0,0,0,2-2.24,19.23,19.23,0,0,0,.46-5.41V54.19l-.06-2.76a13.07,13.07,0,0,0-.54-4.52,6.55,6.55,0,0,0-1.77-2.36c-.81-.7-1.22-1.21-1.22-1.53a1.07,1.07,0,0,1,.61-.86C240.14,41.26,242.34,40.81,245.29,40.81Z"/><g id="Group"><path id="Path-4" data-name="Path" class="cls-1" d="M266.45,53l-.06-3.14q0-3.77-2.54-5.2c-1-.57-1.51-1.08-1.51-1.54s.27-.62.81-.91q2.64-1.38,7.73-1.38h.41c.95,0,1.48.52,1.61,1.57v9.53q0,10.5.44,12.42a4.22,4.22,0,0,0,1.72,2.75c1.37.88,2.05,1.49,2.05,1.82v.32c0,.69-1,1-3,1h-.5l-.47,0h-5.22l-1.92,0h-1.88c-1.34,0-2-.38-2-1.13,0-.48.55-1,1.66-1.67A4.47,4.47,0,0,0,266,64.62a26.73,26.73,0,0,0,.5-6.25Z"/><path id="Path-5" data-name="Path" class="cls-1" d="M273.2,31.69v.74a3.72,3.72,0,0,0-.09.86q0,.48-1,1.44a3.44,3.44,0,0,1-2.52,1h-.78l-.13,0h-.24a1.88,1.88,0,0,0-.38-.06,2.58,2.58,0,0,1-1.83-.87A2.51,2.51,0,0,1,265.4,33l-.1-.62v-.62a2.93,2.93,0,0,1,1.11-2.37,3.85,3.85,0,0,1,2.53-.92h.94a3.22,3.22,0,0,1,2.37.95A3.07,3.07,0,0,1,273.2,31.69Z"/></g><path id="Path-6" data-name="Path" class="cls-1" d="M278.6,63.64c0-1.44.38-2.16,1.16-2.16.22,0,.82.57,1.8,1.73q4.81,3.87,7.8,4.38a6.09,6.09,0,0,0,3.66-1,3.49,3.49,0,0,0,1.47-3,4.08,4.08,0,0,0-2.14-3.41,45.5,45.5,0,0,0-5.06-2.39,21.85,21.85,0,0,1-5.76-3.27,7.34,7.34,0,0,1-2.48-5.65,7.15,7.15,0,0,1,2.73-5.69,9.86,9.86,0,0,1,6.55-2.3h.82a21,21,0,0,1,3.11.38,21.1,21.1,0,0,0,3.63.38,2.37,2.37,0,0,1,2.12,1q.66,1,.66,4.56c0,1.16-.32,1.74-.95,1.74-.36,0-1.06-.54-2.09-1.6a13.78,13.78,0,0,0-3.09-2.48,8.3,8.3,0,0,0-4.11-.88,3.78,3.78,0,0,0-3.58,1.79,3.56,3.56,0,0,0-.55,1.8,2.86,2.86,0,0,0,.46,1.55c.65,1,2.64,2.26,6,3.6A28.6,28.6,0,0,1,297.33,56a6.71,6.71,0,0,1,2.77,5.23V62a7.64,7.64,0,0,1-2.88,6.09,11,11,0,0,1-7.31,2.44h-.82a21.48,21.48,0,0,1-3.36-.49,20,20,0,0,0-3.38-.49l-1.22.06a2,2,0,0,1-1.91-1.32A12.25,12.25,0,0,1,278.6,63.64Z"/><path id="_" data-name="®" class="cls-1" d="M305.69,36.7a.68.68,0,0,0,.43-.15.5.5,0,0,0,.19-.41.41.41,0,0,0-.22-.39.83.83,0,0,0-.4-.12h-.79V36.7Zm.74,2.42-.92-1.68h-.61v1.68h-1V34.79h1.85a2.78,2.78,0,0,1,.58.06,1.73,1.73,0,0,1,.52.22,1,1,0,0,1,.38.42,1.28,1.28,0,0,1,.14.65,1.11,1.11,0,0,1-.24.73,1.46,1.46,0,0,1-.61.42l1.14,1.83ZM301.68,37a3.79,3.79,0,0,1,.3-1.5,4,4,0,0,1,2-2,3.74,3.74,0,0,1,1.49-.3,3.69,3.69,0,0,1,1.48.3,4,4,0,0,1,1.22.83A3.78,3.78,0,0,1,309.33,37a3.71,3.71,0,0,1-.3,1.49,3.75,3.75,0,0,1-.82,1.21,3.8,3.8,0,0,1-1.22.82,3.87,3.87,0,0,1-1.48.29,3.92,3.92,0,0,1-1.49-.29,3.75,3.75,0,0,1-1.21-.82,4,4,0,0,1-.83-1.21A3.71,3.71,0,0,1,301.68,37Zm.61,0a3.18,3.18,0,0,0,.25,1.26,3.31,3.31,0,0,0,.69,1,3.13,3.13,0,0,0,2.28,1,3.18,3.18,0,0,0,1.26-.25,3.15,3.15,0,0,0,1-.7,3.5,3.5,0,0,0,.69-1,3.33,3.33,0,0,0,0-2.53,3.33,3.33,0,0,0-.69-1,3.28,3.28,0,0,0-1-.69,3.19,3.19,0,0,0-1.26-.26,3.12,3.12,0,0,0-1.26.26,3.28,3.28,0,0,0-1,.69,3.16,3.16,0,0,0-.69,1A3.2,3.2,0,0,0,302.29,37Z"/></g></svg>