<svg id="Layer_1" data-name="Layer 1" xmlns="http://www.w3.org/2000/svg" viewBox="0 0 350 120"><defs><style>.cls-1{fill:#00baf2;}.cls-2{fill:#002970;}</style></defs><path class="cls-1" d="M273.57,47.93a13.2,13.2,0,0,0-4.88-6.39A13.4,13.4,0,0,0,261,39.12h-.12a13.4,13.4,0,0,0-9.63,4,13.4,13.4,0,0,0-9.62-4h-.11a13.33,13.33,0,0,0-8.7,3.18v-1a2,2,0,0,0-2-1.81h-8.91a2,2,0,0,0-.76.15,2.09,2.09,0,0,0-.64.42,2,2,0,0,0-.43.64,2.07,2.07,0,0,0-.14.74V89.28a1.94,1.94,0,0,0,.57,1.38,2,2,0,0,0,1.4.57h8.91a2,2,0,0,0,1.95-1.68V54.87a3.2,3.2,0,0,1,1-2,3.31,3.31,0,0,1,2.1-.9h1.65a3.46,3.46,0,0,1,1.88.72,3.19,3.19,0,0,1,.91,1.15,3.15,3.15,0,0,1,.3,1.42l0,34.17a2,2,0,0,0,2,2h8.91a2,2,0,0,0,1.37-.53,1.92,1.92,0,0,0,.61-1.32V55.17A3.23,3.23,0,0,1,255,52.42a3.55,3.55,0,0,1,1.64-.54h1.65a3.24,3.24,0,0,1,2.22,1,3.18,3.18,0,0,1,.87,2.26l0,34.13a1.91,1.91,0,0,0,.57,1.37,2,2,0,0,0,1.4.57h8.91a1.8,1.8,0,0,0,.76-.14,2.09,2.09,0,0,0,.64-.42,2.12,2.12,0,0,0,.43-.64,1.88,1.88,0,0,0,.15-.74V52.6a12.13,12.13,0,0,0-.68-4.66"/><path class="cls-1" d="M213.14,39.62H208V31.45a1.75,1.75,0,0,0-.13-.68,1.65,1.65,0,0,0-.39-.58,1.79,1.79,0,0,0-.59-.39,1.81,1.81,0,0,0-.69-.14,2.09,2.09,0,0,0-.34,0c-5.66,1.52-4.52,9.27-14.85,9.93h-1a2.1,2.1,0,0,0-.43,0,2,2,0,0,0-1.1.68,1.94,1.94,0,0,0-.44,1.21v8.8a2,2,0,0,0,.58,1.38,2,2,0,0,0,1.4.57h5.38V89.67a1.92,1.92,0,0,0,.15.74A2,2,0,0,0,196,91a2,2,0,0,0,.64.42,1.88,1.88,0,0,0,.74.15h8.83a2,2,0,0,0,1.38-.57,1.93,1.93,0,0,0,.57-1.36V52.32h5a1.9,1.9,0,0,0,.75-.15,1.83,1.83,0,0,0,.64-.42,1.91,1.91,0,0,0,.43-.63,1.93,1.93,0,0,0,.15-.75V41.58a2,2,0,0,0-.58-1.38,2,2,0,0,0-1.39-.57"/><path class="cls-2" d="M181,39.62h-8.91a2,2,0,0,0-1.4.57,1.92,1.92,0,0,0-.58,1.37V59.78a2.06,2.06,0,0,1-.62,1.44,2.1,2.1,0,0,1-1.46.59h-3.75a2.22,2.22,0,0,1-.8-.15,2.37,2.37,0,0,1-.68-.45,2.19,2.19,0,0,1-.45-.67,2.14,2.14,0,0,1-.16-.79l0-18.2a1.92,1.92,0,0,0-.58-1.37,2,2,0,0,0-1.39-.57H151.3a2.18,2.18,0,0,0-.76.14,2,2,0,0,0-1.07,1.06,1.88,1.88,0,0,0-.15.74v20a12.33,12.33,0,0,0,.86,5.06,12.51,12.51,0,0,0,7.17,7.09,13,13,0,0,0,5.12.86s5.77,0,5.95,0a2.1,2.1,0,0,1,1.32.66,2,2,0,0,1,0,2.74,2.1,2.1,0,0,1-1.32.68l-.15,0-13,0a2,2,0,0,0-1.4.57,2,2,0,0,0-.58,1.38v8.79a1.93,1.93,0,0,0,.58,1.38,2,2,0,0,0,1.4.57h14.6a12.78,12.78,0,0,0,5.12-.85,12.6,12.6,0,0,0,4.35-2.8,12.46,12.46,0,0,0,2.84-4.29,12.26,12.26,0,0,0,.86-5V41.56a1.88,1.88,0,0,0-.15-.74,2,2,0,0,0-.43-.63,1.83,1.83,0,0,0-.64-.42,1.93,1.93,0,0,0-.75-.15"/><path class="cls-2" d="M95.42,39.62H75.91a2,2,0,0,0-1.37.56A1.88,1.88,0,0,0,74,41.53V89.38a1.87,1.87,0,0,0,.5,1.34,1.94,1.94,0,0,0,1.3.61h9.09a2,2,0,0,0,1.4-.57,1.92,1.92,0,0,0,.58-1.37l0-13.39h8.54a11.7,11.7,0,0,0,4.73-.76,11.46,11.46,0,0,0,4-2.58,11.6,11.6,0,0,0,2.62-4,11.28,11.28,0,0,0,.76-4.67V51.59a11.33,11.33,0,0,0-3.38-8.65,11.51,11.51,0,0,0-4-2.58,11.78,11.78,0,0,0-4.74-.77Zm-.78,16.12v5.43A2.06,2.06,0,0,1,94,62.63a2.12,2.12,0,0,1-1.48.61H86.88V52.38h5.67A2.16,2.16,0,0,1,94,53a2.08,2.08,0,0,1,.61,1.46Z"/><path class="cls-2" d="M130.25,39.67H117.86a1.9,1.9,0,0,0-2,1.82v8.26a2,2,0,0,0,.65,1.4,2,2,0,0,0,1.45.53h11.8a2.05,2.05,0,0,1,1.22.62,2,2,0,0,1,.55,1.25v1.13a2,2,0,0,1-1.73,1.82H124a12.61,12.61,0,0,0-5,.66,12.45,12.45,0,0,0-4.34,2.59,12.18,12.18,0,0,0-3.94,9V79a11.45,11.45,0,0,0,3.46,8.86,11.65,11.65,0,0,0,4.14,2.61,11.89,11.89,0,0,0,4.87.69h16.19A5.12,5.12,0,0,0,143,89.81a5,5,0,0,0,1.61-3.5V52.89C144.6,44.79,140.36,39.67,130.25,39.67Zm1.42,36.77v1.37a1.86,1.86,0,0,1,0,.33,1.47,1.47,0,0,1-.08.28,2,2,0,0,1-.78,1,2.17,2.17,0,0,1-1.21.36h-3.71a2.05,2.05,0,0,1-1.46-.54,2,2,0,0,1-.64-1.4V70.27a2,2,0,0,1,.65-1.39,2.07,2.07,0,0,1,1.45-.54h3.72a2.12,2.12,0,0,1,1.46.54,2,2,0,0,1,.64,1.4Z"/></svg>