<?xml version="1.0" encoding="UTF-8" standalone="no"?>
<svg
   width="350"
   height="120"
   version="1.1"
   id="svg25"
   sodipodi:docname="tracxn.svg"
   inkscape:version="1.1.1 (eb90963e84, 2021-10-02)"
   xmlns:inkscape="http://www.inkscape.org/namespaces/inkscape"
   xmlns:sodipodi="http://sodipodi.sourceforge.net/DTD/sodipodi-0.dtd"
   xmlns:xlink="http://www.w3.org/1999/xlink"
   xmlns="http://www.w3.org/2000/svg"
   xmlns:svg="http://www.w3.org/2000/svg">
  <sodipodi:namedview
     id="namedview27"
     pagecolor="#ffffff"
     bordercolor="#666666"
     borderopacity="1.0"
     inkscape:pageshadow="2"
     inkscape:pageopacity="0.0"
     inkscape:pagecheckerboard="0"
     showgrid="false"
     width="350px"
     inkscape:zoom="1.68"
     inkscape:cx="-19.940476"
     inkscape:cy="111.30952"
     inkscape:window-width="1920"
     inkscape:window-height="1010"
     inkscape:window-x="0"
     inkscape:window-y="34"
     inkscape:window-maximized="1"
     inkscape:current-layer="svg25" />
  <g
     id="g36"
     transform="matrix(2.9999708,0,0,2.9999708,25.000746,28.359116)">
    <use
       fill="#04223a"
       xlink:href="#path0_fill"
       id="use2"
       x="0"
       y="0"
       width="100%"
       height="100%" />
    <use
       fill="#04223a"
       transform="translate(86.18,5.9)"
       xlink:href="#path1_fill"
       id="use4"
       x="0"
       y="0"
       width="100%"
       height="100%" />
    <use
       fill="#04223a"
       transform="translate(47.71,5.6)"
       xlink:href="#path2_fill"
       id="use6"
       x="0"
       y="0"
       width="100%"
       height="100%" />
    <use
       fill="#04223a"
       transform="translate(71.72,6.1)"
       xlink:href="#path3_fill"
       id="use8"
       x="0"
       y="0"
       width="100%"
       height="100%" />
    <use
       fill="#04223a"
       transform="translate(23.03,3.3)"
       xlink:href="#path4_fill"
       id="use10"
       x="0"
       y="0"
       width="100%"
       height="100%" />
    <use
       fill="#04223a"
       transform="translate(60.15,5.6)"
       xlink:href="#path5_fill"
       id="use12"
       x="0"
       y="0"
       width="100%"
       height="100%" />
    <use
       fill="#04223a"
       transform="translate(36.71,5.9)"
       xlink:href="#path6_fill"
       id="use14"
       x="0"
       y="0"
       width="100%"
       height="100%" />
  </g>
  <defs
     id="defs23">
    <path
       id="path0_fill"
       d="M 0,9.95 C 0.03,9.83 0.06,9.72 0.07,9.61 0.24,7.67 0.94,5.81 2.09,4.25 a 10.22,10.22 0 0 1 15.19,-1.6 10.71,10.71 0 0 1 0.32,15.51 10.32,10.32 0 0 1 -5,2.7 c -0.46,0.1 -0.94,0.14 -1.42,0.21 l -0.2,0.04 H 9.86 L 9.66,21.07 A 10.37,10.37 0 0 1 2.36,17.18 10.64,10.64 0 0 1 0.08,11.48 2.73,2.73 0 0 0 0.01,11.14 v -1.2 z m 10.97,-0.13 0.02,0.17 0.27,2.74 c 0.07,0.72 0.15,1.44 0.2,2.16 a 2.35,2.35 0 0 0 0.86,1.71 2.92,2.92 0 0 0 3.49,0.15 2.28,2.28 0 0 0 1.03,-2.2 l -0.1,-0.84 A 1961.02,1961.02 0 0 1 16,5.93 2.24,2.24 0 0 0 15.43,4.63 6.3,6.3 0 0 0 14.97,4.16 2.2,2.2 0 0 0 12.63,3.66 L 12.21,3.79 7.37,5.25 4.32,6.15 C 3.94,6.27 3.59,6.47 3.31,6.75 A 2.98,2.98 0 0 0 3.22,10.8 c 0.6,0.62 1.3,0.88 2.15,0.71 0.22,-0.05 0.44,-0.13 0.66,-0.2 l 4.66,-1.4 0.28,-0.1 z" />
    <path
       id="path1_fill"
       d="m 6.32,11.93 v 0.82 A 0.14,0.14 0 0 1 6.28,12.86 0.13,0.13 0 0 1 6.17,12.9 H 0.3 c -0.12,0 -0.16,-0.04 -0.17,-0.16 v -0.8 l 0.2,-0.07 C 0.99,11.65 1.25,11.33 1.3,10.62 1.33,10.14 1.35,9.66 1.35,9.18 V 3.97 C 1.35,3.46 1.32,2.95 1.3,2.44 1.3,2.34 1.28,2.24 1.25,2.14 A 0.98,0.98 0 0 0 0.6,1.4 L 0,1.22 v -1 H 0.15 L 4.78,0.1 H 4.92 C 5.1,0.11 5.13,0.16 5.12,0.34 L 4.97,1.75 v 0.2 l 0.2,-0.18 a 9.62,9.62 0 0 1 1.7,-1.22 c 1,-0.55 2.16,-0.7 3.26,-0.4 1.08,0.25 1.77,0.95 2.12,2.01 0.16,0.5 0.26,1.02 0.28,1.54 0.03,0.36 0.04,0.73 0.04,1.1 v 4.34 c 0,0.5 0.03,1 0.04,1.5 l 0.02,0.15 c 0.02,0.25 0.12,0.48 0.28,0.67 0.16,0.2 0.38,0.32 0.62,0.38 l 0.25,0.08 0.04,0.04 v 0.8 a 0.14,0.14 0 0 1 -0.04,0.11 0.13,0.13 0 0 1 -0.12,0.04 H 7.81 c -0.15,0 -0.19,-0.04 -0.19,-0.18 v -0.8 l 0.3,-0.1 a 1,1 0 0 0 0.76,-0.82 c 0.06,-0.34 0.1,-0.68 0.1,-1.02 A 176.6,176.6 0 0 0 8.75,4.26 4.42,4.42 0 0 0 8.59,3.25 C 8.34,2.35 7.73,1.99 6.82,2.25 A 2.24,2.24 0 0 0 5.13,4.28 l 0.01,5.69 c 0,0.3 0.03,0.59 0.07,0.88 0.02,0.25 0.11,0.48 0.27,0.66 0.16,0.18 0.38,0.3 0.61,0.35 a 3.77,3.77 0 0 1 0.23,0.07 z" />
    <path
       id="path2_fill"
       d="m 12.36,11.92 v 0.83 a 0.14,0.14 0 0 1 -0.04,0.12 0.13,0.13 0 0 1 -0.12,0.04 H 7.75 C 7.6,12.9 7.56,12.86 7.57,12.71 L 7.65,11.52 7.67,11.24 C 7.57,11.21 7.54,11.28 7.49,11.32 7.14,11.61 6.8,11.92 6.44,12.18 A 4.86,4.86 0 0 1 3.22,13.11 3.89,3.89 0 0 1 1.54,12.65 2.78,2.78 0 0 1 0.1,10.68 3.3,3.3 0 0 1 1.28,7.28 6.3,6.3 0 0 1 3.32,6.24 C 4.22,5.96 5.16,5.76 6.1,5.66 L 7.22,5.53 C 7.24,5.52 7.25,5.51 7.25,5.49 7.25,4.78 7.29,4.06 7.18,3.34 A 2.86,2.86 0 0 0 6.81,2.26 1.43,1.43 0 0 0 5.67,1.56 C 5.36,1.52 5.04,1.56 4.74,1.64 4.47,1.72 4.22,1.88 4.04,2.1 3.78,2.4 3.59,2.76 3.49,3.15 3.4,3.45 3.34,3.75 3.26,4.06 L 3.09,4.07 H 0.9 A 0.14,0.14 0 0 1 0.8,4.03 0.15,0.15 0 0 1 0.76,3.91 V 1.62 L 2.02,1.09 c 1,-0.44 2.07,-0.75 3.15,-0.95 a 8.34,8.34 0 0 1 3.4,0.07 c 0.81,0.2 1.47,0.63 1.9,1.39 0.2,0.36 0.34,0.75 0.42,1.16 0.09,0.47 0.13,0.95 0.13,1.44 v 5.02 c 0,0.52 0.04,1.05 0.07,1.57 0,0.1 0.02,0.2 0.05,0.28 a 0.89,0.89 0 0 0 0.6,0.68 z M 7.26,6.93 6,7.1 C 5.57,7.17 5.15,7.32 4.76,7.54 A 2.08,2.08 0 0 0 3.75,8.9 C 3.67,9.23 3.65,9.58 3.69,9.92 a 1.25,1.25 0 0 0 0.92,1.12 c 0.31,0.1 0.65,0.1 0.96,0.03 0.48,-0.1 0.9,-0.37 1.21,-0.75 C 7.08,9.93 7.26,9.46 7.27,8.97 V 7.12 L 7.25,6.93 Z" />
    <path
       id="path3_fill"
       d="m 0,11.73 0.29,-0.1 c 0.3,-0.1 0.6,-0.27 0.83,-0.49 0.34,-0.3 0.66,-0.62 0.96,-0.95 L 4.88,6.99 4.94,6.89 4.82,6.71 1.93,2.56 C 1.71,2.25 1.47,1.96 1.23,1.66 L 1.11,1.53 C 0.87,1.28 0.61,1.05 0.21,1.01 V 0.62 0.2 C 0.21,0.04 0.25,0.02 0.38,0 H 6.25 A 0.14,0.14 0 0 1 6.35,0.04 0.15,0.15 0 0 1 6.4,0.16 V 1 L 6.23,1.04 5.86,1.2 A 0.47,0.47 0 0 0 5.62,1.7 C 5.64,1.84 5.68,1.97 5.74,2.08 5.8,2.22 5.88,2.35 5.97,2.47 l 1.24,1.8 0.07,0.09 0.1,-0.1 1.15,-1.47 C 8.65,2.64 8.75,2.49 8.84,2.33 8.94,2.16 8.98,1.98 8.99,1.79 A 0.66,0.66 0 0 0 8.57,1.12 L 8.24,1.02 8.04,0.99 V 0.14 A 0.14,0.14 0 0 1 8.09,0.04 0.13,0.13 0 0 1 8.19,0 h 4.58 c 0.14,0 0.18,0.05 0.19,0.18 v 0.8 A 0.87,0.87 0 0 1 12.84,1.02 C 12.43,1.13 12.06,1.35 11.76,1.65 11.47,1.94 11.2,2.24 10.93,2.54 A 637.22,637.22 0 0 0 8.21,5.7 l 0.12,0.19 2.78,4 0.62,0.85 c 0.35,0.44 0.76,0.8 1.32,0.96 l 0.04,0.03 v 0.82 c 0,0.1 -0.06,0.15 -0.16,0.15 H 7.05 C 6.91,12.69 6.87,12.66 6.86,12.51 v -0.8 l 0.22,-0.05 c 0.1,-0.02 0.2,-0.05 0.29,-0.1 A 0.45,0.45 0 0 0 7.63,11.14 0.97,0.97 0 0 0 7.49,10.61 833.85,833.85 0 0 0 5.99,8.39 L 5.87,8.23 5.76,8.35 4.51,9.91 4.19,10.36 c -0.11,0.18 -0.17,0.4 -0.16,0.6 a 0.6,0.6 0 0 0 0.38,0.6 c 0.18,0.07 0.35,0.12 0.53,0.16 v 0.84 A 0.13,0.13 0 0 1 4.86,12.69 H 0.16 A 0.13,0.13 0 0 1 0.04,12.66 0.13,0.13 0 0 1 0,12.55 Z" />
    <path
       id="path4_fill"
       d="M 11.51,4.1 11.27,3.26 C 11.18,2.99 11.1,2.76 11,2.52 10.93,2.37 10.84,2.22 10.74,2.08 A 1.38,1.38 0 0 0 9.67,1.5 C 9.27,1.47 8.87,1.47 8.47,1.46 A 0.32,0.32 0 0 0 8.4,1.48 L 8.38,1.66 v 11.17 c 0,0.3 0.03,0.6 0.08,0.9 a 0.83,0.83 0 0 0 0.55,0.67 c 0.18,0.07 0.38,0.1 0.56,0.16 l 0.14,0.03 v 0.74 a 0.14,0.14 0 0 1 -0.03,0.1 0.13,0.13 0 0 1 -0.1,0.04 H 3.64 c -0.15,0 -0.19,-0.03 -0.19,-0.18 V 14.6 L 3.59,14.56 4.02,14.45 C 4.48,14.33 4.7,14 4.74,13.54 4.77,13.27 4.78,13 4.78,12.73 V 1.51 C 4.76,1.49 4.74,1.47 4.72,1.47 4.25,1.45 3.79,1.47 3.32,1.52 2.95,1.59 2.62,1.79 2.39,2.1 2.21,2.36 2.07,2.65 1.98,2.95 l -0.3,0.99 c 0,0.05 -0.02,0.1 -0.04,0.15 H 0.23 C 0.03,4.09 0,4.07 0,3.87 V 0.21 C 0,0.03 0.03,0.01 0.22,0.01 h 12.62 c 0.3,0 0.31,-0.04 0.31,0.32 v 3.58 c 0,0.16 -0.03,0.18 -0.18,0.19 z" />
    <path
       id="path5_fill"
       d="M 10.57,10.77 C 9.48,11.85 8.32,12.73 6.8,13 A 7,7 0 0 1 3.23,12.7 4.66,4.66 0 0 1 0.5,9.84 7.84,7.84 0 0 1 0.05,7.74 C 0,7.12 0,6.48 0.04,5.84 a 6.92,6.92 0 0 1 1.14,-3.36 5.49,5.49 0 0 1 3,-2.15 7.7,7.7 0 0 1 2.5,-0.31 C 7.82,0.03 8.96,0.2 10.07,0.5 l 0.26,0.08 0.01,0.19 v 2.87 c 0,0.04 -0.01,0.07 -0.04,0.1 A 0.13,0.13 0 0 1 10.21,3.77 H 7.87 L 7.72,3.76 7.61,3.21 A 3.8,3.8 0 0 0 7.22,2.13 1.1,1.1 0 0 0 6.47,1.55 1.56,1.56 0 0 0 4.96,2.04 C 4.72,2.3 4.54,2.6 4.43,2.94 a 7.1,7.1 0 0 0 -0.4,1.82 c -0.1,0.88 -0.11,1.77 -0.05,2.65 0.03,0.6 0.14,1.2 0.33,1.78 a 4,4 0 0 0 0.27,0.6 2.14,2.14 0 0 0 1.94,1.17 C 7.13,10.99 7.74,10.82 8.24,10.48 8.58,10.25 8.89,9.98 9.22,9.73 L 9.37,9.6 c 0.1,-0.09 0.16,-0.1 0.24,0 l 0.96,1.18 z" />
    <path
       id="path6_fill"
       d="m 10.65,0.2 v 3.36 c 0,0.22 -0.04,0.28 -0.29,0.28 H 8.26 L 8.18,3.63 C 8.08,3.36 7.96,3.11 7.82,2.86 A 1.07,1.07 0 0 0 6.35,2.45 2.04,2.04 0 0 0 5.15,4.23 C 5.13,4.53 5.12,4.84 5.12,5.16 V 9.3 c 0,0.46 0.04,0.92 0.07,1.38 l 0.05,0.25 a 1.1,1.1 0 0 0 0.82,0.88 l 0.4,0.1 v 0.84 a 0.14,0.14 0 0 1 -0.05,0.1 0.13,0.13 0 0 1 -0.1,0.04 H 0.37 c -0.2,0 -0.23,-0.02 -0.23,-0.24 V 11.91 L 0.41,11.82 C 0.95,11.67 1.23,11.28 1.28,10.73 A 16,16 0 0 0 1.36,9.33 V 3.76 C 1.36,3.28 1.31,2.81 1.29,2.33 1.29,2.26 1.27,2.2 1.25,2.13 A 0.98,0.98 0 0 0 0.6,1.4 C 0.4,1.33 0.2,1.28 -0.01,1.22 v -1 L 0.12,0.2 4.82,0.1 h 0.1 c 0.18,0 0.22,0.05 0.2,0.23 L 4.98,1.88 4.97,2.05 5.13,1.89 c 0.34,-0.4 0.74,-0.76 1.16,-1.06 0.87,-0.6 1.9,-0.9 2.95,-0.82 0.43,0.02 0.86,0.1 1.29,0.15 l 0.12,0.03 z" />
  </defs>
</svg>
