<svg xmlns="http://www.w3.org/2000/svg" width="100" height="100" fill="none" viewBox="0 0 100 100"><clipPath id="a"><path d="M8 0h91v95H8z"/></clipPath><path fill="#fff" d="M0 0h100v100H0z"/><g clip-path="url(#a)"><path fill="#fdd335" d="M70.578 76.585a5.535 5.535 0 1 0-11.07 0 5.535 5.535 0 0 0 11.07 0zM52.657 58.664a5.535 5.535 0 1 0-11.07 0 5.535 5.535 0 0 0 11.07 0z"/><g fill="#000"><path d="M7.947 25.488h3.409c.046.364.153.676.112.967-.446 3.19 1.5 4.855 3.943 6.178 3.236 1.752 6.774 2.538 10.382 2.898 5.656.564 11.273.245 16.619-1.859 1.79-.704 3.43-1.856 5.019-2.976 1.063-.75 1.454-1.973 1.405-3.322-.052-1.414-.012-2.832-.012-4.383-.372.103-.6.113-.766.22-3.882 2.508-8.211 3.67-12.74 4.146-6.563.69-13.048.356-19.235-2.164-1.794-.73-3.555-1.727-5.067-2.933-4.161-3.321-4.201-8.069-.215-11.596 3.006-2.66 6.693-3.912 10.526-4.685 7.077-1.427 14.12-1.23 21.051.922 2.796.868 5.405 2.119 7.533 4.198 1.496 1.461 2.435 3.196 2.437 5.336.008 6.658.002 13.316-.003 19.974 0 .262-.054.524-.093.886h-3.317l-.21-2.486c-12.404 6.185-24.697 6.154-37.038.107-1.375 3.948-.182 7.297 3.538 9.35 3.962 2.185 8.305 2.915 12.758 3.15 2.165.115 2.036-.36 2.041 2.155v1.496c-6.594.01-12.747-1.149-18.461-4.73 0 2.088-.29 4.013.104 5.786.257 1.155 1.337 2.32 2.351 3.075 2.744 2.043 6.028 2.818 9.34 3.42.7.128 1.408.224 2.312.366l-.305 3.495c-4.975-.404-9.477-1.755-13.592-4.381-1.378 4.744-.36 7.604 3.71 9.811 4.209 2.282 8.828 2.984 13.723 3.086 0-.659.026-1.216-.003-1.77-.35-6.68 1.417-12.719 5.459-18.068.878-1.163 1.961-1.426 2.835-.736.847.67.85 1.7.03 2.851-5.3 7.441-6.326 15.408-2.746 23.841 3.886 9.155 13.845 14.889 23.718 13.788 12.77-1.424 21.857-12.033 21.204-24.758-.552-10.761-9.18-20.166-19.935-21.761-5.558-.824-10.727.231-15.617 2.972-.629.352-1.639.366-2.332.129-.389-.133-.74-1.146-.651-1.687.09-.55.644-1.168 1.161-1.485 11.649-7.147 27.515-3.956 35.579 7.12 10.31 14.162 5.23 33.63-10.674 40.899-11.392 5.206-25.545 1.503-32.755-8.758-1.645-2.341-2.774-5.066-3.968-7.693-.392-.86-.699-1.26-1.675-1.273-4.089-.058-8.097-.678-11.944-2.107-3.181-1.182-6.193-2.684-7.962-5.77-.556-.971-.981-2.176-.988-3.277-.078-12.466-.063-24.932-.07-37.398 0-.132.033-.264.075-.565zm21.703-1.395c4.367-.06 8.254-.517 12.01-1.789 2.254-.764 4.413-1.732 6.051-3.545 1.434-1.586 1.593-3.235.033-4.605-1.508-1.324-3.273-2.493-5.12-3.265-5.04-2.108-10.396-2.457-15.78-2.064-4.067.297-8.055 1.118-11.665 3.145-1.712.962-3.55 2.047-3.64 4.29-.09 2.292 1.717 3.414 3.431 4.4 4.673 2.688 9.846 3.25 14.68 3.433z"/><path d="M82.284 21.776v-1.663c0-4.332-.002-8.664.001-12.997.001-2.05.51-2.83 1.826-2.814 1.3.016 1.743.748 1.744 2.876 0 3.216.039 6.432-.02 9.647-.02 1.06.327 1.41 1.374 1.365 1.694-.072 3.393-.045 5.09-.02 1.78.027 3.293.615 3.926 2.429.636 1.822.36 3.524-1.057 4.947-5.326 5.345-10.641 10.7-15.979 16.033-2.157 2.155-4.848 2.199-7.006.064A3199.114 3199.114 0 0 1 56.07 25.554c-1.46-1.466-1.609-3.233-.873-5.084.71-1.79 2.18-2.34 3.987-2.302 1.428.03 2.86-.042 4.287.021 1.02.045 1.447-.263 1.393-1.355-.082-1.648-.036-3.304-.015-4.956.017-1.44.659-2.213 1.768-2.201 1.1.012 1.728.79 1.736 2.238.017 2.814-.039 5.629.03 8.441.026 1.088-.26 1.491-1.406 1.452-2.453-.083-4.911-.047-7.367-.012-.394.005-.785.254-1.177.39.173.38.256.849.532 1.127 5.185 5.23 10.394 10.437 15.596 15.651.738.74 1.436.757 2.192-.005 5.188-5.228 10.392-10.441 15.571-15.678.283-.286.395-.74.587-1.115-.397-.13-.795-.368-1.194-.371-3.074-.032-6.148-.018-9.433-.018zM47.617 82.224c-.668-.544-1.402-.847-1.526-1.312-.17-.64-.103-1.548.248-2.093 1.786-2.773 3.691-5.47 5.562-8.188 3.614-5.254 7.231-10.504 10.847-15.756l.458-.66c.647-.943 1.495-1.285 2.524-.686.944.55 1.114 1.638.416 2.684a654.819 654.819 0 0 1-5.116 7.522c-3.894 5.658-7.786 11.318-11.716 16.952-.397.57-1.049.96-1.697 1.537zM64.63 83.268c-3.637-.014-6.65-3.035-6.635-6.655.015-3.601 3.096-6.673 6.672-6.651 3.615.022 6.63 3.072 6.619 6.695a6.637 6.637 0 0 1-6.657 6.61zm3.063-6.62a3.02 3.02 0 0 0-3.06-3.034c-1.623.005-2.978 1.332-3.005 2.943-.03 1.749 1.24 3.061 2.976 3.075 1.734.014 3.087-1.293 3.089-2.984zM54.404 58.423c.011 3.713-2.892 6.642-6.59 6.648-3.687.006-6.603-2.904-6.628-6.616-.025-3.688 2.787-6.536 6.48-6.562 3.685-.027 6.726 2.92 6.738 6.53zm-6.555 3.002c1.679-.018 2.98-1.3 2.997-2.95.016-1.554-1.512-3.03-3.131-3.023-1.635.006-2.967 1.353-2.964 2.998.003 1.713 1.337 2.994 3.098 2.975zM64.849-.094c-.001-1.296-.016-2.59.003-3.886.016-1.135.493-1.898 1.738-1.926 1.092-.024 1.739.632 1.756 1.905.036 2.59.037 5.182-.003 7.772-.019 1.21-.758 1.936-1.808 1.874-1.14-.067-1.665-.758-1.681-1.854-.019-1.295-.004-2.59-.005-3.886z"/></g><path fill="#fdd335" d="M70.314 24.138V5.953h9.488v18.185h6.853L75.058 35.471 63.726 24.138z"/></g></svg>