<svg xmlns="http://www.w3.org/2000/svg" width="100" height="100" fill="none" viewBox="0 0 100 100"><clipPath id="a"><path d="M0 0h100v100H0z"/></clipPath><clipPath id="b"><path d="M-7 18H98.172v63.654H-7z"/></clipPath><g clip-path="url(#a)"><path fill="#fff" d="M0 0h100v100H0z"/><g clip-path="url(#b)"><path fill="#fdd335" d="M82.864 49.292c0-9.01-7.304-16.315-16.315-16.315s-16.314 7.305-16.314 16.315 7.304 16.315 16.314 16.315 16.315-7.305 16.315-16.315z"/><g fill="#000"><path d="M64.945 81.654c-5.801-.05-14.994-3.122-21.17-9.297-6.206-6.205-9.308-13.803-9.314-22.588-.004-7.87 2.55-14.864 7.747-20.783C48.586 21.72 56.661 18.03 66.362 18c8.762-.027 16.306 3.119 22.46 9.234 6.227 6.186 9.368 13.867 9.35 22.653-.018 8.742-3.138 16.386-9.356 22.54-6.195 6.13-12.124 9.259-23.871 9.227zm1.352-59.472c-15.312.145-27.613 12.352-27.593 27.695.019 15.236 12.408 27.596 27.65 27.54 15.378-.057 27.62-12.294 27.578-27.588-.043-15.632-12.413-27.478-27.635-27.647zM12.674 38.143c5.7 0 11.4.004 17.1-.005.611-.001 1.21.092 1.673.465.652.525 1 1.22.752 2.12-.302 1.098-.915 1.535-2.271 1.64-.204.015-.41.008-.616.008-11.163 0-13.979.002-25.142-.003-.472 0-.987.052-1.403-.116-.425-.17-.85-.519-1.102-.903-.45-.682-.39-1.452-.016-2.18.416-.812 1.166-.993 1.988-1.022.19-.007.38-.004.569-.004h8.468zM16.86 54.051H8.507c-1.22-.001-1.93-.565-2.189-1.742-.19-.863.304-1.997 1.214-2.263.382-.112.78-.234 1.171-.235 8.699-.013 12.583-.002 21.282-.018 1.36-.002 2.463 1.086 2.295 2.464-.098.804-1.02 1.81-2.018 1.804-4.467-.027-8.935-.011-13.403-.011zM23.26 61.58c2.968 0 5.935-.003 8.901.002 1.268.002 1.849.45 2.224 1.638.254.805-.365 2.157-1.327 2.388-.436.104-.89.19-1.334.19-5.745.013-11.489.01-17.233.008-1.327 0-2.116-.653-2.402-1.894-.168-.727.513-2.26 1.704-2.305.851-.033 1.704-.025 2.556-.026 2.304-.003 4.608-.001 6.912-.001z"/><path d="M68.444 40.617c0 2.099.011 4.198-.009 6.297-.004.41.118.733.381 1.017 1.104 1.189.725 3.5-.55 4.375-.561.386-1.106.58-1.748.678-.267.04-.551.227-.75.426-4.143 4.14-8.27 8.299-12.419 12.435-.412.41-.87.792-1.506.91-1.367.253-2.564-.793-2.517-2.128.02-.617.303-1.07.702-1.47 4.275-4.286 8.558-8.566 12.83-12.855.132-.131.261-.341.261-.515-.002-.867.403-1.547.896-2.212.134-.18.183-.462.184-.697.01-4.277.011-8.554.004-12.831-.001-.945.373-1.661 1.228-2.074.747-.36 1.853-.202 2.46.55.439.543.543 1.153.548 1.796.015 2.1.006 4.198.006 6.297z"/></g></g></g></svg>