<svg xmlns="http://www.w3.org/2000/svg" width="100" height="100" fill="none" viewBox="0 0 100 100"><path fill="#fff" d="M0 0h100v100H0z"/><path fill="#fdd335" d="M66.834 32.944c0-7.423-6.018-13.441-13.441-13.441S39.952 25.52 39.952 32.944s6.018 13.441 13.44 13.441 13.442-6.018 13.442-13.441z"/><g fill="#000"><path d="M71.99 69.472c2.758-1.142 5.355-2.271 7.992-3.297 3.784-1.472 7.527-3.132 11.758-2.782 4 .331 7.126 3.782 6.809 7.704-.205 2.534-1.788 4.282-3.813 5.525a127.91 127.91 0 0 1-9.033 5.083c-7.023 3.564-14.124 6.97-21.154 10.52-4.638 2.34-9.493 3.028-14.645 2.697C43.36 94.5 36.98 93.276 30.64 91.7c-1.609-.4-3.273-.576-4.914-.84-2.453-.397-4.413.681-6.29 2.074-3.009 2.233-3.665 2.256-6.658-.001-4.703-3.548-7.317-8.497-9.118-13.95a23.595 23.595 0 0 1-1.106-9.722c.18-1.895.612-2.16 2.402-2.775 5.08-1.75 10.122-3.612 15.174-5.44 6.028-2.183 12.21-3.454 18.643-2.858 1.847.172 3.758.572 5.451 1.303 4.792 2.07 9.63 2.177 14.673 1.21a21.116 21.116 0 0 1 6.64-.19c3.863.512 6.373 3.683 6.454 7.602.008.386 0 .772 0 1.359zm-21.505 21.85c6.445 0 8.014-.286 12.15-2.327a2554.03 2554.03 0 0 0 25.586-12.791c1.822-.925 3.597-2.022 5.193-3.29 2.158-1.717 1.96-3.731-.36-5.232-.523-.34-1.254-.625-1.84-.551-1.981.248-4.054.373-5.885 1.079-6.115 2.357-12.127 4.978-18.204 7.433-2.914 1.177-5.823 2.455-8.85 3.243-3.715.97-7.487.146-11.192-.542-1.015-.188-1.394-1.064-1.279-2.017.11-.901.674-1.59 1.644-1.565 1.043.028 2.095.178 3.117.398 5.688 1.22 10.728-.516 15.458-3.45 1.964-1.22 2.53-2.941 1.973-4.834-.546-1.85-2.026-2.964-4.337-2.905-2 .051-4.022.25-5.981.649-4.318.876-8.49.643-12.623-.942-1.91-.733-3.884-1.467-5.892-1.745-5.757-.798-11.342.343-16.763 2.19-5.002 1.703-9.913 3.673-14.89 5.454-.922.33-1.29.7-1.292 1.728-.01 4.469 1.37 8.53 3.48 12.377 1.359 2.477 3.085 4.67 5.406 6.345.703.508 1.222.567 2.067.03 1.676-1.067 3.437-2.229 5.323-2.684 3.3-.795 6.619.045 9.84.915 6.534 1.764 13.155 2.907 18.151 3.034z"/><path d="M15.643 50.771c1.364-1.92 2.723-3.842 4.096-5.756.253-.352.513-.882.85-.952.71-.15 1.632-.307 2.164.026.449.28.692 1.271.617 1.9-.075.63-.618 1.226-1.02 1.791a841.672 841.672 0 0 1-6.225 8.629c-1.103 1.505-1.939 1.618-3.42.57-3.18-2.252-6.362-4.503-9.539-6.762-1.166-.83-1.478-1.896-.845-2.794.693-.984 1.779-1.105 2.995-.262 1.69 1.173 3.348 2.394 5.027 3.584.34.241.712.437 1.333.814-.128-.832-.204-1.375-.296-1.916-1.712-10.07.022-19.53 5.07-28.385C21.078 13.14 27.755 7.23 36.296 3.566 46.31-.729 56.562-1.175 66.926 2.4 77.385 6.005 85.311 12.71 90.487 22.406c6.065 11.359 6.736 23.224 2.258 35.336-.472 1.279-1.5 1.831-2.542 1.414-1.084-.433-1.44-1.51-.907-2.89 1.724-4.465 2.668-9.099 2.558-13.874-.274-11.89-4.793-21.82-13.896-29.608C66.324 2.83 48.872.876 35.36 8.11c-11.853 6.346-18.627 16.299-20.61 29.507-.652 4.343-.41 8.723.894 13.155z"/><path d="M53.162 55.593c-12.317-.033-22.16-10.012-22.133-22.438.026-12.078 10.177-22.105 22.311-22.04 12.244.066 22.176 10.097 22.12 22.338-.057 12.28-10.022 22.174-22.298 22.14zm18.596-22.158c.101-10.067-8.24-18.515-18.376-18.608-10.198-.094-18.498 8.147-18.61 18.477-.11 10.092 8.079 18.443 18.217 18.579 10.275.137 18.666-8.11 18.77-18.448z"/><path d="M55.808 43.076c-.105 0-.21-.018-.315-.053s-.192-.07-.262-.105l-.315-.157-7.088-5.618a2.579 2.579 0 0 1-.263-.158 3.432 3.432 0 0 1-.21-.367 1.167 1.167 0 0 1-.158-.368 1.727 1.727 0 0 1-.052-.42c0-.28.035-.525.105-.735a1.81 1.81 0 0 1 .473-.578 1.6 1.6 0 0 1 .525-.367c.21-.07.437-.105.682-.105h3.57c1.016 0 1.716-.228 2.1-.683.42-.455.666-.787.736-.997h-7.193c-.21 0-.403-.035-.578-.105-.175-.07-.333-.175-.473-.315s-.245-.298-.315-.473-.105-.367-.105-.577c0-.175.035-.35.105-.526s.175-.332.315-.472.298-.245.473-.315c.175-.105.368-.158.578-.158l7.035.053c-.07-.105-.28-.368-.63-.788-.315-.455-.997-.682-2.048-.682l-4.357-.105-.473-.053a1.166 1.166 0 0 1-.683-.472 1.703 1.703 0 0 1-.315-.788v-.42c.035-.14.088-.262.158-.367.07-.14.157-.263.262-.368.14-.175.298-.298.473-.368s.368-.105.578-.105h10.343c.21 0 .403.035.578.105s.332.176.472.316c.14.14.245.297.315.472s.105.368.105.578c0 .175-.035.367-.105.577-.07.175-.175.333-.315.473-.14.14-.297.245-.472.315s-.368.105-.578.105h-.84c.105.21.245.472.42.787.21.28.35.525.42.735h.263c.21 0 .35.053.42.158.105.07.227.175.367.315a1.405 1.405 0 0 1 .42.998c0 .21-.035.402-.105.577s-.175.333-.315.473c-.14.14-.297.245-.472.315s-.368.105-.578.105h-.105c-.105.665-.315 1.225-.63 1.68-.28.42-.665.84-1.155 1.26-.56.56-1.19.98-1.89 1.26-.665.28-1.4.42-2.206.42h-.157l4.358 3.413c.105.105.175.192.21.262.07.07.122.14.157.21.07.105.123.228.158.368.035.105.052.227.052.368 0 .175-.035.367-.105.577-.07.175-.175.333-.315.473-.14.14-.297.245-.472.315s-.368.105-.578.105z"/></g></svg>