<svg xmlns="http://www.w3.org/2000/svg" viewBox="0 0 180.198 47.292"><defs><style>.cls-1{fill:#fdd535}.cls-2{fill:#131a2d}.cls-3{fill:none}</style></defs><g id="logo_horizontal" transform="translate(108.038 28.354)"><g id="LOGO_horizontal-2" data-name="LOGO_horizontal" transform="translate(-108.038 -28.354)"><path id="Path_43" d="M561.131 343.709a3.679 3.679 0 0 0-4.32-2.906l-2.631.515a.27.27 0 0 1-.051.005.219.219 0 0 1-.193-.13.208.208 0 0 1 .028-.233l1.844-2.3a3.661 3.661 0 0 0 .525-.9 3.561 3.561 0 0 0-2.04-4.651 3.489 3.489 0 0 0-1.246-.23 3.64 3.64 0 0 0-3.345 2.281l-3.4 8.5a2.423 2.423 0 0 0-.145.548 2.341 2.341 0 0 0 2 2.637l8.864 1.217a3.8 3.8 0 0 0 .5.033 3.681 3.681 0 0 0 3.613-4.388z" class="cls-1" data-name="Path 43" transform="translate(-516.974 -320.175)"/><path id="Path_44" d="M2789.42 458.171a3.3 3.3 0 0 1-2.069-.174 2.408 2.408 0 0 1-1.37-1.351l6.836-1.562a1.8 1.8 0 0 0 1.355-2.158 5.2 5.2 0 0 0-2.622-3.652 6.249 6.249 0 0 0-4.468-.527 6.175 6.175 0 0 0-3.844 2.611 5.888 5.888 0 0 0-.774 4.843 5.979 5.979 0 0 0 2.769 4.046 6.364 6.364 0 0 0 4.818.644 6.757 6.757 0 0 0 4.249-2.957l-2.135-1.466a.19.19 0 0 0-.265.051 3.884 3.884 0 0 1-2.48 1.652zm-3.312-5.713a3.034 3.034 0 0 1 1.651-1 2.551 2.551 0 0 1 1.785.193 2.4 2.4 0 0 1 1.16 1.445l-5.173 1.182a2.326 2.326 0 0 1 .576-1.818z" class="cls-2" data-name="Path 44" transform="translate(-2626.834 -429.324)"/><path id="Path_45" d="M2568.058 458.176a3.3 3.3 0 0 1-2.069-.174 2.407 2.407 0 0 1-1.369-1.351l6.836-1.562a1.8 1.8 0 0 0 1.355-2.158 5.194 5.194 0 0 0-2.622-3.652 6.251 6.251 0 0 0-4.468-.527 6.175 6.175 0 0 0-3.843 2.611 5.888 5.888 0 0 0-.774 4.844 5.978 5.978 0 0 0 2.77 4.046 6.364 6.364 0 0 0 4.817.644 6.758 6.758 0 0 0 4.249-2.957l-2.135-1.466a.19.19 0 0 0-.266.051 3.883 3.883 0 0 1-2.481 1.651zm-3.312-5.712a3.033 3.033 0 0 1 1.651-1 2.551 2.551 0 0 1 1.785.193 2.4 2.4 0 0 1 1.16 1.445l-5.173 1.182a2.326 2.326 0 0 1 .578-1.821z" class="cls-2" data-name="Path 45" transform="translate(-2417.972 -429.329)"/><path id="Path_46" d="M2329.539 397.834a4.122 4.122 0 0 0-2.327-1.318q.405-.18.562-.259a4.278 4.278 0 0 0 .562-.394 3.223 3.223 0 0 0 1.192-2.748 4.078 4.078 0 0 0-1.057-2.748 3.952 3.952 0 0 0-1.742-1.036 8.8 8.8 0 0 0-2.754-.383h-5.875a.242.242 0 0 0-.242.242v15.5h6.88q3.238 0 4.542-1.464a4.242 4.242 0 0 0 1.125-2.906 3.675 3.675 0 0 0-.866-2.486zm-8.173-5.912h1.687a5.159 5.159 0 0 1 2.2.338 1.41 1.41 0 0 1 .652 1.385 1.33 1.33 0 0 1-.708 1.363 5.623 5.623 0 0 1-2.17.315h-1.664zm4.666 9.426a5.3 5.3 0 0 1-2.259.372h-2.406v-3.626h2.069a6.827 6.827 0 0 1 2.552.349 1.408 1.408 0 0 1 .8 1.442 1.472 1.472 0 0 1-.753 1.464z" class="cls-2" data-name="Path 46" transform="translate(-2188.649 -373.081)"/><path id="Path_47" d="M2125.316 403.168a3.83 3.83 0 0 1-1.352.61 6.843 6.843 0 0 1-1.686.2 5.01 5.01 0 0 1-3.552-1.172 4.487 4.487 0 0 1-1.256-3.445v-5.286h-1.094v-2.871h1.094v-3.029a.1.1 0 0 1 .1-.1h3.522a.1.1 0 0 1 .1.1v3.029h3.206v2.871h-3.198v5.239a1.756 1.756 0 0 0 .419 1.256 1.553 1.553 0 0 0 1.184.443 2.4 2.4 0 0 0 1.507-.478z" class="cls-2" data-name="Path 47" transform="translate(-1998.546 -372.255)"/><path id="Path_48" d="M2009.146 337.557a2.026 2.026 0 0 1 0-2.966 2.369 2.369 0 0 1 1.675-.6 2.424 2.424 0 0 1 1.674.574 1.842 1.842 0 0 1 .646 1.435 2.031 2.031 0 0 1-.646 1.543 2.338 2.338 0 0 1-1.674.61 2.366 2.366 0 0 1-1.675-.596zm-.086 2.392h3.522a.1.1 0 0 1 .1.1v12.765h-3.731v-12.76a.1.1 0 0 1 .1-.1z" class="cls-2" data-name="Path 48" transform="translate(-1896.762 -321.228)"/><path id="Path_49" d="M1741.52 353.215V370.8h-3.564v-1.48a4.6 4.6 0 0 1-3.83 1.674 6.516 6.516 0 0 1-3.207-.793 5.677 5.677 0 0 1-2.251-2.263 7.512 7.512 0 0 1 0-6.811 5.679 5.679 0 0 1 2.251-2.263 6.521 6.521 0 0 1 3.207-.793 4.5 4.5 0 0 1 3.662 1.47v-6.327a.161.161 0 0 1 .161-.161h3.409a.161.161 0 0 1 .162.162zm-4.66 13.977a4.109 4.109 0 0 0 0-5.191 3.292 3.292 0 0 0-4.665 0 3.606 3.606 0 0 0-.923 2.6 3.466 3.466 0 0 0 1 2.519 3 3 0 0 0 2.268 1.045 3.072 3.072 0 0 0 2.321-.969z" class="cls-2" data-name="Path 49" transform="translate(-1631.961 -339.213)"/><path id="Path_50" d="M1502.473 459.158a3.3 3.3 0 0 1-2.069-.174 2.408 2.408 0 0 1-1.369-1.351l6.836-1.561a1.8 1.8 0 0 0 1.356-2.158 5.2 5.2 0 0 0-2.621-3.652 6.25 6.25 0 0 0-4.468-.528 6.174 6.174 0 0 0-3.844 2.611 5.886 5.886 0 0 0-.774 4.843 5.979 5.979 0 0 0 2.769 4.046 6.363 6.363 0 0 0 4.818.644 6.758 6.758 0 0 0 4.249-2.957l-2.135-1.466a.19.19 0 0 0-.265.051 3.888 3.888 0 0 1-2.483 1.652zm-3.311-5.713a3.034 3.034 0 0 1 1.651-1 2.551 2.551 0 0 1 1.785.193 2.4 2.4 0 0 1 1.16 1.445l-5.173 1.181a2.327 2.327 0 0 1 .577-1.819z" class="cls-2" data-name="Path 50" transform="translate(-1412.562 -430.255)"/><g id="_Group_" data-name="&lt;Group&gt;" transform="translate(74.53 19.34)"><path id="Path_51" d="m1356.738 453.609.01-.06a5.793 5.793 0 0 1 1.8-2.544 3.605 3.605 0 0 0-3.819-.031 5.672 5.672 0 0 0-1.63 1.261v-1.43a.169.169 0 0 0-.169-.169h-3.15a.185.185 0 0 0-.185.185v11.933h3.5v-5.248a4.869 4.869 0 0 1 .742-2.827 2.551 2.551 0 0 1 2.248-1.07h.652z" class="cls-2" data-name="Path 51" transform="translate(-1349.591 -450.427)"/></g><g id="_Group_2" data-name="&lt;Group&gt;" transform="translate(60.043 15.992)"><path id="Path_52" d="M1106.31 391.146h-3.81a.233.233 0 0 0-.2.106c-.534.825-4.055 6.178-5.634 6.447a.1.1 0 0 1-.119-.1v-6.221a.234.234 0 0 0-.234-.234h-3.033a.234.234 0 0 0-.234.234v15.482h3.5v-6a.168.168 0 0 1 .189-.167 8.3 8.3 0 0 1 4.644 2.551 4.63 4.63 0 0 1 1.4 3.615h3.5a9.061 9.061 0 0 0-4.884-7.765c-.879-.476-.812-.493-.155-1.261 3.419-4 4.749-5.665 5.244-6.313a.234.234 0 0 0-.186-.375z" class="cls-2" data-name="Path 52" transform="translate(-1093.052 -391.146)"/></g><g id="Group_1" data-name="Group 1" transform="translate(13.579 4.959)"><path id="Path_53" d="m565.176 350.49-2.631.515a.787.787 0 0 1-.765-1.264l1.842-2.3a3.09 3.09 0 0 0 .443-.76 3 3 0 0 0-1.717-3.914 3.028 3.028 0 0 0-3.866 1.734l-3.4 8.5a1.856 1.856 0 0 0-.111.418 1.776 1.776 0 0 0 1.518 2h.031l8.831 1.212a3.191 3.191 0 0 0 1.023-.029 3.117 3.117 0 1 0-1.2-6.118z" class="cls-3" data-name="Path 53" transform="translate(-538.877 -334.284)"/><path id="Path_54" d="M361.717 292.315a1.511 1.511 0 0 0 .553-2.064 1.511 1.511 0 0 0-2.064-.553 1.511 1.511 0 0 0-.553 2.064 1.511 1.511 0 0 0 2.064.553z" class="cls-2" data-name="Path 54" transform="translate(-354.414 -284.203)"/><path id="Path_55" d="M272.52 343.821a1.511 1.511 0 0 0 .553-2.064 1.511 1.511 0 0 0-2.064-.553 1.511 1.511 0 0 0-.553 2.064 1.511 1.511 0 0 0 2.064.553z" class="cls-2" data-name="Path 55" transform="translate(-270.254 -332.8)"/><path id="Path_56" d="M355.048 200.312a9.092 9.092 0 0 0-12.3-3.392l-.116.066a8.935 8.935 0 0 0-.8.517l-.019.013a15.084 15.084 0 0 0-5.99 8.518q-.086.323-.159.649a.6.6 0 0 1-.858.4 19.055 19.055 0 0 0-3.759-1.448q-.69-.185-1.392-.317a1.489 1.489 0 0 0-1.681.971q-.236.673-.42 1.364a18.906 18.906 0 0 0 1.9 14.392l.023.04.053.091.059.1a18.919 18.919 0 0 0 12.775 8.924 1.489 1.489 0 0 0 1.681-.971q.236-.674.42-1.364a19.061 19.061 0 0 0 .624-3.945.6.6 0 0 1 .778-.542 15.1 15.1 0 0 0 9.831-.228 9.086 9.086 0 0 0 2.053-.871 9.184 9.184 0 0 0 1.022-.686 9.092 9.092 0 0 0-2.7-15.815 9.056 9.056 0 0 0-1.025-6.466zm-1.387 14.12a3.117 3.117 0 0 1-2.46 3.658 3.191 3.191 0 0 1-1.023.029l-8.831-1.213h-.031a1.776 1.776 0 0 1-1.518-2 1.856 1.856 0 0 1 .111-.418l3.4-8.5a3.029 3.029 0 0 1 3.866-1.734 3 3 0 0 1 1.717 3.914 3.092 3.092 0 0 1-.443.76l-1.842 2.3a.787.787 0 0 0 .765 1.264l2.631-.515a3.117 3.117 0 0 1 3.657 2.455z" class="cls-2" data-name="Path 56" transform="translate(-323.703 -195.765)"/></g><path id="Rectangle_160" d="M0 0h180.198v47.292H0z" class="cls-3" data-name="Rectangle 160"/></g></g></svg>